<?xml version="1.0" encoding="utf-8"?>
<!-- Generator: Adobe Illustrator 23.0.3, SVG Export Plug-In . SVG Version: 6.00 Build 0)  -->
<svg version="1.1" id="Layer_1" xmlns="http://www.w3.org/2000/svg" xmlns:xlink="http://www.w3.org/1999/xlink" x="0px" y="0px"
	 width="489px" height="160px" viewBox="0 0 489 160" style="enable-background:new 0 0 489 160;" xml:space="preserve">
<style type="text/css">
	.st0{fill:#FFFFFF;}
	.st1{fill:#456E2D;}
	.st2{fill:#4D4D4D;}
	.st3{fill:#FF4900;}
</style>
<rect class="st0" width="489" height="160"/>
<g>
	<g>
		<g>
			<g>
				<path class="st3" d="M77.8,49.3c-0.5-2.4-2.6-4.1-5.2-4.1S68,47,67.5,49.3c-3.1,0.5-5.2,1.3-5.2,2.4c0,1,1.9,1.8,4.9,2.3
					c0,3,2.5,5.4,5.5,5.4s5.4-2.4,5.5-5.4c2.9-0.5,4.9-1.3,4.9-2.3C83,50.7,80.9,49.8,77.8,49.3z"/>
			</g>
		</g>
		<g>
			<g>
				<path class="st3" d="M65.5,61.1c-3.4,0-6.2,2.8-6.2,6.2v5.8l-5.5-1.5v-6h2.3c1.1,0,2-0.9,2-2c0-1.1,0-11.9,0-12.3
					c0-0.6-0.5-1.2-1.2-1.2c-0.6,0-1.2,0.5-1.2,1.2v7.3c0,0.3-0.3,0.6-0.6,0.6h-1.1c-0.3,0-0.6-0.3-0.6-0.6v-7.3
					c0-0.6-0.5-1.2-1.2-1.2c-0.6,0-1.2,0.5-1.2,1.2v7.3c0,0.3-0.3,0.6-0.6,0.6h-1.1c-0.3,0-0.6-0.3-0.6-0.6v-7.3
					c0-0.6-0.5-1.2-1.2-1.2c-0.6,0-1.2,0.5-1.2,1.2v12.3c0,1.1,0.9,2,1.9,2h2.3v5.7c-0.7,0.3-1.3,0.9-1.5,1.7
					c-0.4,1.3,0.3,2.6,1.5,3.1v30c0,0.9,0.7,1.6,1.6,1.6c0.9,0,1.6-0.7,1.6-1.6V77.1l7.4,2.1c1.7,0.5,3.3-0.8,3.3-2.5v-9.2
					c0-0.3,0.2-0.5,0.5-0.5c0.3,0,0.5,0.2,0.5,0.5v0.5h2.1v-6.7C67.7,61.1,65.5,61.1,65.5,61.1z"/>
			</g>
		</g>
		<g>
			<g>
				<path class="st3" d="M79.7,96.1l-2.7-2l-3.6,0.8v16.7c0,1.7,1.4,3.2,3.2,3.2s3.2-1.4,3.2-3.2C79.7,108.6,79.7,102.6,79.7,96.1z"
					/>
			</g>
		</g>
		<g>
			<g>
				<path class="st3" d="M70.1,61.1v6.7h5.1v-6.7C74,61.1,72.8,61.1,70.1,61.1z"/>
			</g>
		</g>
		<g>
			<g>
				<path class="st3" d="M118.3,107.2c-0.7-3.1-3.6-5.1-6.7-4.8c-0.9,0.1-1.8,0.4-2.5,0.8l-2.5-2.3l1.2-1.9l3.5-5.5
					c0.7-1.2-0.1-2.7-1.5-2.7c-0.4,0-27.9,0.1-28.4,0.1l-2.8-2c-0.4-0.3-0.8-0.4-1.2-0.3l-7.3,1.6c-0.8,0.2-1.3,1-1.1,1.8
					c0.2,0.8,1,1.3,1.8,1.1l6.6-1.5L82,95c0.5,1.5,1.9,6.2,2.3,7.7l-0.5,9.1c-0.1,1.5,1.1,2.8,2.6,2.9c1.9,0.1,1.9,0.1,2,0.1
					c1.4,0,2.7-0.9,3.2-2.3l2.8-8c1.5,0,7.6,0,8.5,0c0.8,0,1.6-0.4,2-1.1l2,1.8c-0.9,1.4-1.2,3.1-0.8,4.7c0.8,3.4,4.1,5.5,7.5,4.7
					C117,113.9,119.1,110.5,118.3,107.2z M88.7,111.5c-0.1,0.2-0.2,0.3-0.4,0.3l-1.5-0.1l0.4-7.1l4,0L88.7,111.5z M112.9,110.9
					c-1.6,0.4-3.1-0.6-3.5-2.2c-0.1-0.4-0.1-0.8,0-1.2l1.8,1.7c0.6,0.6,1.6,0.5,2.1-0.1c0.6-0.6,0.5-1.6-0.1-2.1l-1.8-1.7
					c0.2-0.1,0.5-0.1,0.8-0.1c1.4,0,2.5,0.9,2.8,2.3C115.5,109,114.5,110.5,112.9,110.9z"/>
			</g>
		</g>
		<g>
			<g>
				<path class="st3" d="M79.8,61.1h-2.2v6.7h2.1v-0.6c0-0.3,0.2-0.5,0.5-0.5c0.3,0,0.5,0.2,0.5,0.5c0,0,0,0,0,0v19.3
					c0,0.3,0.1,0.6,0.2,0.9l2.4,1.8c1.5,0,2.7-1.2,2.7-2.6V67.3C85.9,63.9,83.2,61.1,79.8,61.1z"/>
			</g>
		</g>
		<g>
			<g>
				<path class="st3" d="M79.6,70.2H65.7l0,41.4c0,1.7,1.4,3.2,3.2,3.2c1.7,0,3.2-1.4,3.2-3.2V95.2l-0.7,0.2c-2,0.5-4.1-0.8-4.5-2.9
					c-0.5-2,0.8-4.1,2.9-4.5l2.3-0.5v-1.1h1.4v0.8l3.6-0.8c0.9-0.2,1.9-0.1,2.7,0.4C79.6,78.8,79.6,71.9,79.6,70.2z M76.5,78.1
					c0,0.9-0.7,1.6-1.6,1.6h-4.6c-0.9,0-1.6-0.7-1.6-1.6v-4.4h0c0-0.3,0.2-0.5,0.5-0.5H76c0.3,0,0.5,0.2,0.5,0.5L76.5,78.1
					L76.5,78.1z"/>
			</g>
		</g>
		<g>
			<g>
				<path class="st3" d="M98.5,79.8c-1-2.1-6.2-5.5-8.9-7.2c-0.8-0.5-1.8,0-1.9,0.9c-0.2,3.2-0.6,9.4,0.5,11.5
					c1.3,2.5,4.4,4.2,7,3.6c-0.5-0.8-0.9-1.7-1.3-2.5c-2.1-0.8-3.6-1.7-4.5-2.4c-0.1,0-0.1-0.1-0.1-0.2c0-0.1,0.1-0.1,0.2-0.1
					c0.8,0,1.9,0.1,3.2,0.3c-1.1-2.4-2.2-5.4-2.7-7.5c0-0.1,0-0.2,0.1-0.2c0.1,0,0.2,0,0.2,0c0.9,1.2,2.6,3.5,4.4,6.7
					c0.6-1.2,1.2-2.2,1.7-2.8c0-0.1,0.1-0.1,0.2-0.1c0.1,0,0.1,0.1,0.1,0.2c0,1.2-0.2,2.9-0.8,5c0.4,0.9,0.8,1.7,1.2,2.6
					C99.2,85.9,99.7,82.4,98.5,79.8z"/>
			</g>
		</g>
		<g>
			<g>
				<path class="st3" d="M111.6,68.6c0-0.9-1-1.5-1.8-1c-2.8,1.6-8.1,4.8-9.2,6.8c-1.4,2.5-1,6,1,7.8c0.4-0.8,0.9-1.7,1.3-2.5
					c-0.5-2.1-0.6-3.9-0.5-5c0-0.1,0.1-0.1,0.1-0.2c0.1,0,0.1,0,0.2,0.1c0.4,0.6,1,1.6,1.5,2.8c1.9-3,3.6-5.3,4.7-6.5
					c0.1-0.1,0.1-0.1,0.2,0s0.1,0.1,0.1,0.2c-0.5,1.5-1.5,4.2-3.1,7.4c1.4-0.2,2.5-0.2,3.2-0.2c0.1,0,0.1,0.1,0.2,0.1
					c0,0.1,0,0.1-0.1,0.2c-0.9,0.7-2.5,1.5-4.6,2.2c-0.5,0.8-1,1.7-1.5,2.5c2.7,0.8,5.9-0.8,7.2-3.2C111.8,78,111.7,71.8,111.6,68.6
					z"/>
			</g>
		</g>
	</g>
</g>
<g>
	<g>
		<path d="M146.5,68.7V56.8h5.5c1.4,0,2.5,0.3,3.2,0.8c0.8,0.5,1.2,1.3,1.2,2.3c0,1-0.4,1.7-1.1,2.3c-0.7,0.5-1.7,0.8-2.9,0.8
			l0.3-0.7c1.3,0,2.4,0.3,3.1,0.8c0.7,0.5,1.1,1.3,1.1,2.3c0,1-0.4,1.9-1.2,2.5c-0.8,0.6-1.9,0.9-3.4,0.9H146.5z M149.2,61.7h2.6
			c0.6,0,1.1-0.1,1.4-0.4c0.3-0.2,0.5-0.6,0.5-1.1s-0.2-0.8-0.5-1.1c-0.3-0.2-0.8-0.4-1.4-0.4h-2.6V61.7z M149.2,66.6h3
			c0.6,0,1.1-0.1,1.4-0.4s0.5-0.6,0.5-1.2c0-0.5-0.2-0.9-0.5-1.1c-0.3-0.2-0.8-0.4-1.4-0.4h-3V66.6z"/>
		<path d="M158.7,68.7V56.8h2.7v7.8l5.7-7.8h2.6v11.9H167v-7.7l-5.7,7.7H158.7z"/>
		<path d="M175,68.7h-2.8V56.8h2.8V68.7z M180.6,63.8h-5.8v-2.3h5.8V63.8z M180.4,56.8h2.8v11.9h-2.8V56.8z"/>
		<path d="M184.4,68.7l5.3-11.9h2.7l5.3,11.9h-2.9l-4.4-10.5h1.1l-4.4,10.5H184.4z M187,66.1l0.7-2.1h6.1l0.7,2.1H187z"/>
		<path d="M198.9,68.7V56.8h8.4l0,2.2H201l0.6-0.6l0,10.3H198.9z"/>
		<path d="M208.5,68.7V56.8h2.7v7.8l5.7-7.8h2.6v11.9h-2.7v-7.7l-5.7,7.7H208.5z"/>
		<path d="M232.1,68.9c-0.9,0-1.8-0.2-2.6-0.5c-0.8-0.3-1.5-0.7-2-1.3c-0.6-0.6-1-1.2-1.4-2s-0.5-1.6-0.5-2.5c0-0.9,0.2-1.7,0.5-2.5
			s0.8-1.4,1.4-2c0.6-0.6,1.3-1,2-1.3c0.8-0.3,1.6-0.5,2.6-0.5c1,0,2,0.2,2.8,0.5c0.8,0.4,1.5,0.9,2.1,1.6l-1.8,1.6
			c-0.4-0.5-0.9-0.8-1.4-1c-0.5-0.2-1-0.3-1.6-0.3c-0.6,0-1.1,0.1-1.5,0.3c-0.5,0.2-0.9,0.4-1.2,0.8c-0.3,0.3-0.6,0.7-0.8,1.2
			c-0.2,0.5-0.3,1-0.3,1.5c0,0.6,0.1,1.1,0.3,1.5c0.2,0.5,0.5,0.9,0.8,1.2c0.3,0.3,0.7,0.6,1.2,0.8c0.5,0.2,1,0.3,1.5,0.3
			c0.6,0,1.1-0.1,1.6-0.3c0.5-0.2,1-0.6,1.4-1.1l1.8,1.6c-0.6,0.7-1.3,1.2-2.1,1.6S233.1,68.9,232.1,68.9z"/>
		<path d="M238.4,68.7V56.8h5.5c1.4,0,2.5,0.3,3.2,0.8c0.8,0.5,1.2,1.3,1.2,2.3c0,1-0.4,1.7-1.1,2.3c-0.7,0.5-1.7,0.8-2.9,0.8
			l0.3-0.7c1.3,0,2.4,0.3,3.1,0.8c0.7,0.5,1.1,1.3,1.1,2.3c0,1-0.4,1.9-1.2,2.5c-0.8,0.6-1.9,0.9-3.4,0.9H238.4z M241.1,61.7h2.6
			c0.6,0,1.1-0.1,1.4-0.4c0.3-0.2,0.5-0.6,0.5-1.1s-0.2-0.8-0.5-1.1c-0.3-0.2-0.8-0.4-1.4-0.4h-2.6V61.7z M241.1,66.6h3
			c0.6,0,1.1-0.1,1.4-0.4c0.3-0.2,0.5-0.6,0.5-1.2c0-0.5-0.2-0.9-0.5-1.1c-0.3-0.2-0.8-0.4-1.4-0.4h-3V66.6z"/>
		<path d="M253.4,66.5h6.5v2.2h-9.2V56.8h9V59h-6.3V66.5z M253.2,61.6h5.7v2.1h-5.7V61.6z"/>
		<path d="M263.4,68.7h-3.2l4-7.1l2.3,1.3L263.4,68.7z M264.2,63l-3.7-6.3h2.9l3.3,6L264.2,63z M268.7,63.9H265v-2.3h3.7V63.9z
			 M270.6,68.7h-2.7V56.8h2.7V68.7z M269.8,63.9v-2.3h3.7v2.3H269.8z M274.3,63l-2.5-0.3l3.3-6h2.9L274.3,63z M275,68.7l-3.2-5.7
			l2.3-1.3l4,7.1H275z"/>
		<path d="M279.1,68.7V56.8h2.7v7.8l5.7-7.8h2.6v11.9h-2.7v-7.7l-5.7,7.7H279.1z"/>
		<path d="M297,68.7V56.8h10.8v11.9h-2.7V58.4l0.6,0.6h-6.6l0.6-0.6v10.3H297z"/>
		<path d="M310.4,68.7V56.8h5.2c1.1,0,2,0.2,2.8,0.5s1.4,0.8,1.8,1.5c0.4,0.6,0.6,1.4,0.6,2.3c0,0.9-0.2,1.6-0.6,2.3
			c-0.4,0.6-1,1.1-1.8,1.5s-1.7,0.5-2.8,0.5h-3.6l1.2-1.2v4.5H310.4z M313.1,64.5l-1.2-1.3h3.5c0.9,0,1.5-0.2,1.9-0.5
			c0.4-0.4,0.6-0.9,0.6-1.5c0-0.7-0.2-1.2-0.6-1.5c-0.4-0.4-1.1-0.5-1.9-0.5h-3.5l1.2-1.3V64.5z"/>
		<path d="M327.9,68.9c-0.9,0-1.8-0.2-2.6-0.5s-1.5-0.7-2.1-1.3s-1-1.2-1.4-2c-0.3-0.7-0.5-1.6-0.5-2.4s0.2-1.7,0.5-2.4
			c0.3-0.7,0.8-1.4,1.4-2c0.6-0.6,1.3-1,2.1-1.3c0.8-0.3,1.7-0.5,2.6-0.5c0.9,0,1.8,0.2,2.6,0.5c0.8,0.3,1.5,0.7,2.1,1.3
			c0.6,0.6,1,1.2,1.4,1.9s0.5,1.6,0.5,2.5c0,0.9-0.2,1.7-0.5,2.5s-0.8,1.4-1.4,2c-0.6,0.5-1.3,1-2.1,1.3
			C329.7,68.7,328.9,68.9,327.9,68.9z M327.9,66.5c0.5,0,1-0.1,1.5-0.3c0.4-0.2,0.8-0.4,1.2-0.8c0.3-0.3,0.6-0.7,0.8-1.2
			c0.2-0.5,0.3-1,0.3-1.5c0-0.6-0.1-1.1-0.3-1.5c-0.2-0.5-0.4-0.9-0.8-1.2s-0.7-0.6-1.2-0.8c-0.5-0.2-0.9-0.3-1.5-0.3
			c-0.5,0-1,0.1-1.5,0.3c-0.4,0.2-0.8,0.4-1.2,0.8s-0.6,0.7-0.8,1.2c-0.2,0.5-0.3,1-0.3,1.5c0,0.6,0.1,1.1,0.3,1.5
			c0.2,0.5,0.4,0.9,0.8,1.2c0.3,0.3,0.7,0.6,1.2,0.8C326.9,66.4,327.4,66.5,327.9,66.5z"/>
		<path d="M334.6,71.1l0-4.7h13.5v4.7h-2.5v-2.5h-8.4v2.5H334.6z M343.7,67.4V59h-4.1l-0.1,1.7c0,0.7-0.1,1.4-0.1,2.1
			c-0.1,0.7-0.2,1.3-0.3,1.8c-0.1,0.5-0.3,1-0.5,1.4s-0.4,0.6-0.7,0.8l-2.9-0.4c0.4,0,0.7-0.1,1-0.4s0.5-0.7,0.6-1.3
			c0.2-0.5,0.3-1.2,0.3-1.9c0.1-0.7,0.1-1.5,0.2-2.4l0.1-3.7h9.1v10.7H343.7z"/>
		<path d="M353.5,66.8l-5.4-10h2.9l3.9,8L353.5,66.8z M349.9,66.4c0.7,0.2,1.2,0.2,1.7,0.2c0.4-0.1,0.8-0.4,1.2-0.9l0.6-0.9l0.3-0.3
			l3.9-7.7h2.7l-5.1,9.4c-0.5,0.9-1,1.5-1.6,2c-0.6,0.5-1.3,0.7-2,0.8c-0.7,0.1-1.5-0.1-2.3-0.4L349.9,66.4z"/>
		<path d="M361.1,68.7V56.8h2.7v11.9H361.1z M363,63.9v-2.3h4.1v2.3H363z M367.6,63l-2.5-0.3l3.9-6h2.9L367.6,63z M368.8,68.7
			l-3.7-5.7l2.2-1.3l4.6,7.1H368.8z"/>
		<path d="M375.3,68.7V58.4l0.6,0.6h-4.4v-2.2h10.3V59h-4.4l0.6-0.6v10.3H375.3z"/>
		<path d="M383.1,68.7V56.8h2.7v7.8l5.7-7.8h2.6v11.9h-2.7v-7.7l-5.7,7.7H383.1z"/>
		<path class="st2" d="M146.4,85.7v-8.4h7.1v8.4h-0.9v-7.9l0.2,0.2h-5.8l0.2-0.2v7.9H146.4z"/>
		<path class="st2" d="M160,85.7c-0.6,0-1.2-0.1-1.8-0.3s-1-0.5-1.4-0.9c-0.4-0.4-0.7-0.8-0.9-1.4c-0.2-0.5-0.3-1.1-0.3-1.7
			s0.1-1.2,0.3-1.7c0.2-0.5,0.5-1,0.9-1.4s0.9-0.7,1.4-0.9s1.1-0.3,1.8-0.3c0.6,0,1.2,0.1,1.8,0.3c0.5,0.2,1,0.5,1.4,0.9
			s0.7,0.8,0.9,1.4c0.2,0.5,0.3,1.1,0.3,1.7s-0.1,1.2-0.3,1.7c-0.2,0.5-0.5,1-0.9,1.4c-0.4,0.4-0.9,0.7-1.4,0.9
			C161.2,85.6,160.7,85.7,160,85.7z M160,85c0.5,0,1-0.1,1.4-0.3c0.4-0.2,0.8-0.4,1.1-0.7c0.3-0.3,0.6-0.7,0.7-1.1
			c0.2-0.4,0.3-0.9,0.3-1.4s-0.1-1-0.3-1.4c-0.2-0.4-0.4-0.8-0.7-1.1c-0.3-0.3-0.7-0.6-1.1-0.7c-0.4-0.2-0.9-0.3-1.4-0.3
			s-1,0.1-1.4,0.3c-0.4,0.2-0.8,0.4-1.1,0.7c-0.3,0.3-0.6,0.7-0.7,1.1c-0.2,0.4-0.3,0.9-0.3,1.4c0,0.5,0.1,1,0.3,1.4
			c0.2,0.4,0.4,0.8,0.7,1.1c0.3,0.3,0.7,0.6,1.1,0.7C159,84.9,159.5,85,160,85z"/>
		<path class="st2" d="M166.5,85.7v-8.4h3.1c0.7,0,1.3,0.1,1.8,0.3c0.5,0.2,0.9,0.6,1.2,1c0.3,0.4,0.4,0.9,0.4,1.6
			c0,0.6-0.1,1.1-0.4,1.5c-0.3,0.4-0.7,0.8-1.2,1c-0.5,0.2-1.1,0.3-1.8,0.3H167l0.4-0.4v3.1H166.5z M167.4,82.7l-0.4-0.4h2.6
			c0.8,0,1.5-0.2,1.9-0.5c0.4-0.4,0.7-0.9,0.7-1.5c0-0.7-0.2-1.2-0.7-1.6c-0.4-0.4-1.1-0.6-1.9-0.6H167l0.4-0.4V82.7z"/>
		<path class="st2" d="M179.5,80.3c1,0,1.7,0.2,2.3,0.7c0.5,0.4,0.8,1.1,0.8,2c0,0.9-0.3,1.6-0.8,2.1c-0.6,0.5-1.4,0.7-2.4,0.7H176
			V78h-2.6v-0.8h3.5v3H179.5z M179.3,85c0.8,0,1.4-0.2,1.8-0.5c0.4-0.3,0.6-0.8,0.6-1.5s-0.2-1.2-0.6-1.5c-0.4-0.3-1-0.5-1.8-0.5
			h-2.4v4H179.3z"/>
		<path class="st2" d="M189.6,82.1c-0.5,0.2-1,0.4-1.4,0.5c-0.5,0.1-0.9,0.2-1.4,0.2c-1,0-1.8-0.2-2.3-0.7c-0.5-0.5-0.8-1.1-0.8-2
			v-2.8h0.9v2.7c0,0.6,0.2,1.2,0.6,1.5c0.4,0.4,1,0.5,1.7,0.5c0.4,0,0.9-0.1,1.3-0.2s0.9-0.3,1.4-0.5V82.1z M189.5,85.7v-8.4h0.9
			v8.4H189.5z"/>
		<path class="st2" d="M193.2,85.7v-8.4h3.5c0.9,0,1.6,0.2,2.1,0.5c0.5,0.4,0.8,0.9,0.8,1.6c0,0.7-0.2,1.2-0.7,1.6
			c-0.5,0.4-1.1,0.5-1.9,0.5l0.2-0.3c0.9,0,1.6,0.2,2.1,0.6c0.5,0.4,0.7,0.9,0.7,1.6c0,0.7-0.3,1.3-0.8,1.7
			c-0.5,0.4-1.3,0.6-2.3,0.6H193.2z M194.1,81.1h2.6c0.6,0,1.1-0.1,1.5-0.4c0.3-0.3,0.5-0.6,0.5-1.2c0-0.5-0.2-0.9-0.5-1.2
			s-0.8-0.4-1.5-0.4h-2.6V81.1z M194.1,85h2.8c0.7,0,1.3-0.1,1.6-0.4c0.4-0.3,0.6-0.7,0.6-1.2c0-0.5-0.2-0.9-0.6-1.2
			c-0.4-0.3-0.9-0.4-1.6-0.4h-2.8V85z"/>
		<path class="st2" d="M200.9,85.7l3.8-8.4h0.9l3.8,8.4h-0.9l-3.5-7.9h0.4l-3.5,7.9H200.9z M202.5,83.4l0.3-0.7h4.9l0.3,0.7H202.5z"
			/>
		<path class="st2" d="M216,84.9l-0.2,0.2v-7.9h0.9v7.9l-0.2-0.2h4.3l-0.2,0.2v-7.9h0.9v8.4h-10.3v-8.4h0.9v7.9l-0.2-0.2H216z"/>
		<path class="st2" d="M227.4,85.7v-8.4h0.9v7l5.4-7h0.8v8.4h-0.9v-6.9l-5.4,6.9H227.4z"/>
		<path class="st2" d="M240.9,85.7c-0.6,0-1.2-0.1-1.8-0.3s-1-0.5-1.4-0.9c-0.4-0.4-0.7-0.8-0.9-1.4c-0.2-0.5-0.3-1.1-0.3-1.7
			s0.1-1.2,0.3-1.7c0.2-0.5,0.5-1,0.9-1.4c0.4-0.4,0.9-0.7,1.4-0.9s1.1-0.3,1.8-0.3c0.6,0,1.2,0.1,1.7,0.3c0.5,0.2,1,0.5,1.4,0.9
			l-0.6,0.6c-0.3-0.4-0.7-0.6-1.1-0.8c-0.4-0.2-0.9-0.2-1.3-0.2c-0.5,0-1,0.1-1.4,0.3c-0.4,0.2-0.8,0.4-1.1,0.7
			c-0.3,0.3-0.6,0.7-0.8,1.1c-0.2,0.4-0.3,0.9-0.3,1.4s0.1,1,0.3,1.4c0.2,0.4,0.4,0.8,0.8,1.1s0.7,0.6,1.1,0.7
			c0.4,0.2,0.9,0.3,1.4,0.3c0.5,0,0.9-0.1,1.3-0.2s0.8-0.4,1.1-0.8l0.6,0.6c-0.4,0.4-0.8,0.7-1.4,0.9
			C242.1,85.6,241.6,85.7,240.9,85.7z"/>
		<path class="st2" d="M247.4,85.7v-7.9l0.2,0.2h-3.2v-0.8h6.8V78h-3.2l0.2-0.2v7.9H247.4z"/>
		<path class="st2" d="M252.8,85.7v-8.4h0.9v7l5.4-7h0.8v8.4H259v-6.9l-5.4,6.9H252.8z"/>
		<path class="st2" d="M263.6,85.7h-0.9v-8.4h0.9V85.7z M268.9,81.8h-5.4V81h5.4V81.8z M268.8,77.3h0.9v8.4h-0.9V77.3z"/>
		<path class="st2" d="M276.2,85.7c-0.6,0-1.2-0.1-1.8-0.3s-1-0.5-1.4-0.9c-0.4-0.4-0.7-0.8-0.9-1.4c-0.2-0.5-0.3-1.1-0.3-1.7
			s0.1-1.2,0.3-1.7c0.2-0.5,0.5-1,0.9-1.4c0.4-0.4,0.9-0.7,1.4-0.9s1.1-0.3,1.8-0.3c0.6,0,1.2,0.1,1.7,0.3c0.5,0.2,1,0.5,1.4,0.9
			l-0.6,0.6c-0.3-0.4-0.7-0.6-1.1-0.8c-0.4-0.2-0.9-0.2-1.3-0.2c-0.5,0-1,0.1-1.4,0.3c-0.4,0.2-0.8,0.4-1.1,0.7
			c-0.3,0.3-0.6,0.7-0.8,1.1c-0.2,0.4-0.3,0.9-0.3,1.4s0.1,1,0.3,1.4c0.2,0.4,0.4,0.8,0.8,1.1s0.7,0.6,1.1,0.7
			c0.4,0.2,0.9,0.3,1.4,0.3c0.5,0,0.9-0.1,1.3-0.2s0.8-0.4,1.1-0.8l0.6,0.6c-0.4,0.4-0.8,0.7-1.4,0.9
			C277.4,85.6,276.8,85.7,276.2,85.7z"/>
		<path class="st2" d="M281.1,85.7v-8.4h0.9v8.4H281.1z M281.7,81.8V81h2.6v0.8H281.7z M284.4,81.6l-0.8-0.1l3.1-4.2h1L284.4,81.6z
			 M286.9,85.7l-3.2-4.2l0.7-0.4l3.5,4.6H286.9z"/>
		<path class="st2" d="M289.3,85.7v-8.4h0.9v7l5.4-7h0.8v8.4h-0.9v-6.9l-5.4,6.9H289.3z"/>
		<path class="st2" d="M302.3,85.7v-8.4h0.9v7l5.4-7h0.8v8.4h-0.9v-6.9l-5.4,6.9H302.3z"/>
		<path class="st2" d="M315.3,85.7v-8.4h3.5c0.9,0,1.6,0.2,2.1,0.5c0.5,0.4,0.8,0.9,0.8,1.6c0,0.7-0.2,1.2-0.7,1.6
			c-0.5,0.4-1.1,0.5-1.9,0.5l0.2-0.3c0.9,0,1.6,0.2,2.1,0.6c0.5,0.4,0.7,0.9,0.7,1.6c0,0.7-0.3,1.3-0.8,1.7
			c-0.5,0.4-1.3,0.6-2.3,0.6H315.3z M316.2,81.1h2.6c0.6,0,1.1-0.1,1.5-0.4c0.3-0.3,0.5-0.6,0.5-1.2c0-0.5-0.2-0.9-0.5-1.2
			c-0.3-0.3-0.8-0.4-1.5-0.4h-2.6V81.1z M316.2,85h2.8c0.7,0,1.3-0.1,1.6-0.4c0.4-0.3,0.6-0.7,0.6-1.2c0-0.5-0.2-0.9-0.6-1.2
			c-0.4-0.3-0.9-0.4-1.6-0.4h-2.8V85z"/>
		<path class="st2" d="M324.3,85.7v-8.4h0.9v7l5.4-7h0.8v8.4h-0.9v-6.9l-5.4,6.9H324.3z"/>
		<path class="st2" d="M335.1,85.7h-0.9v-8.4h0.9V85.7z M340.4,81.8H335V81h5.4V81.8z M340.4,77.3h0.9v8.4h-0.9V77.3z"/>
		<path class="st2" d="M342.8,85.7l3.8-8.4h0.9l3.8,8.4h-0.9l-3.5-7.9h0.4l-3.5,7.9H342.8z M344.3,83.4l0.3-0.7h4.9l0.3,0.7H344.3z"
			/>
		<path class="st2" d="M353,85.7v-8.4h5.3V78h-4.7l0.2-0.2l0,7.9H353z"/>
		<path class="st2" d="M359.9,85.7v-8.4h0.9v7l5.4-7h0.8v8.4H366v-6.9l-5.4,6.9H359.9z"/>
		<path class="st2" d="M376.6,85.7c-0.6,0-1.2-0.1-1.8-0.3s-1-0.5-1.4-0.9c-0.4-0.4-0.7-0.8-0.9-1.4c-0.2-0.5-0.3-1.1-0.3-1.7
			s0.1-1.2,0.3-1.7c0.2-0.5,0.5-1,0.9-1.4c0.4-0.4,0.9-0.7,1.4-0.9s1.1-0.3,1.8-0.3c0.6,0,1.2,0.1,1.7,0.3c0.5,0.2,1,0.5,1.4,0.9
			l-0.6,0.6c-0.3-0.4-0.7-0.6-1.1-0.8c-0.4-0.2-0.9-0.2-1.3-0.2c-0.5,0-1,0.1-1.4,0.3c-0.4,0.2-0.8,0.4-1.1,0.7
			c-0.3,0.3-0.6,0.7-0.8,1.1c-0.2,0.4-0.3,0.9-0.3,1.4s0.1,1,0.3,1.4c0.2,0.4,0.4,0.8,0.8,1.1s0.7,0.6,1.1,0.7
			c0.4,0.2,0.9,0.3,1.4,0.3c0.5,0,0.9-0.1,1.3-0.2s0.8-0.4,1.1-0.8l0.6,0.6c-0.4,0.4-0.8,0.7-1.4,0.9
			C377.8,85.6,377.2,85.7,376.6,85.7z"/>
		<path class="st2" d="M381.5,85.7v-8.4h3.5c0.9,0,1.6,0.2,2.1,0.5c0.5,0.4,0.8,0.9,0.8,1.6c0,0.7-0.2,1.2-0.7,1.6
			c-0.5,0.4-1.1,0.5-1.9,0.5l0.2-0.3c0.9,0,1.6,0.2,2.1,0.6c0.5,0.4,0.7,0.9,0.7,1.6c0,0.7-0.3,1.3-0.8,1.7
			c-0.5,0.4-1.3,0.6-2.3,0.6H381.5z M382.4,81.1h2.6c0.6,0,1.1-0.1,1.5-0.4c0.3-0.3,0.5-0.6,0.5-1.2c0-0.5-0.2-0.9-0.5-1.2
			c-0.3-0.3-0.8-0.4-1.5-0.4h-2.6V81.1z M382.4,85h2.8c0.7,0,1.3-0.1,1.6-0.4c0.4-0.3,0.6-0.7,0.6-1.2c0-0.5-0.2-0.9-0.6-1.2
			c-0.4-0.3-0.9-0.4-1.6-0.4h-2.8V85z"/>
		<path class="st2" d="M391.4,84.9h5.1v0.8h-5.9v-8.4h5.8V78h-4.9V84.9z M391.3,81h4.4v0.8h-4.4V81z"/>
		<path class="st2" d="M398.2,85.7h-1l3.1-4.6l0.8,0.4L398.2,85.7z M400.2,81.6l-2.8-4.3h1l2.7,4.2L400.2,81.6z M402.8,81.8h-2.4V81
			h2.4V81.8z M403.4,85.7h-0.9v-8.4h0.9V85.7z M403.1,81.8V81h2.4v0.8H403.1z M405.7,81.6l-0.8-0.1l2.7-4.2h1L405.7,81.6z
			 M407.7,85.7l-2.8-4.2l0.8-0.4l3.1,4.6H407.7z"/>
		<path class="st2" d="M410.1,85.7v-8.4h0.9v7l5.4-7h0.8v8.4h-0.9v-6.9l-5.4,6.9H410.1z"/>
		<path class="st2" d="M146.4,102.7v-8.4h7.1v8.4h-0.9v-7.9l0.2,0.2h-5.8l0.2-0.2v7.9H146.4z"/>
		<path class="st2" d="M156.3,102.7v-8.4h3.1c0.7,0,1.3,0.1,1.8,0.3c0.5,0.2,0.9,0.6,1.2,1c0.3,0.4,0.4,0.9,0.4,1.6
			c0,0.6-0.1,1.1-0.4,1.5c-0.3,0.4-0.7,0.8-1.2,1c-0.5,0.2-1.1,0.3-1.8,0.3h-2.7l0.4-0.4v3.1H156.3z M157.2,99.7l-0.4-0.4h2.6
			c0.8,0,1.5-0.2,1.9-0.5c0.4-0.4,0.7-0.9,0.7-1.5c0-0.7-0.2-1.2-0.7-1.6c-0.4-0.4-1.1-0.6-1.9-0.6h-2.6l0.4-0.4V99.7z"/>
		<path class="st2" d="M168.5,102.7c-0.6,0-1.2-0.1-1.8-0.3s-1-0.5-1.4-0.9c-0.4-0.4-0.7-0.8-0.9-1.4c-0.2-0.5-0.3-1.1-0.3-1.7
			s0.1-1.2,0.3-1.7c0.2-0.5,0.5-1,0.9-1.4s0.9-0.7,1.4-0.9s1.1-0.3,1.8-0.3c0.6,0,1.2,0.1,1.8,0.3c0.5,0.2,1,0.5,1.4,0.9
			s0.7,0.8,0.9,1.4c0.2,0.5,0.3,1.1,0.3,1.7s-0.1,1.2-0.3,1.7c-0.2,0.5-0.5,1-0.9,1.4c-0.4,0.4-0.9,0.7-1.4,0.9
			C169.7,102.6,169.2,102.7,168.5,102.7z M168.5,102c0.5,0,1-0.1,1.4-0.3c0.4-0.2,0.8-0.4,1.1-0.7c0.3-0.3,0.6-0.7,0.7-1.1
			c0.2-0.4,0.3-0.9,0.3-1.4s-0.1-1-0.3-1.4c-0.2-0.4-0.4-0.8-0.7-1.1c-0.3-0.3-0.7-0.6-1.1-0.7c-0.4-0.2-0.9-0.3-1.4-0.3
			s-1,0.1-1.4,0.3c-0.4,0.2-0.8,0.4-1.1,0.7c-0.3,0.3-0.6,0.7-0.7,1.1c-0.2,0.4-0.3,0.9-0.3,1.4c0,0.5,0.1,1,0.3,1.4
			c0.2,0.4,0.4,0.8,0.7,1.1c0.3,0.3,0.7,0.6,1.1,0.7C167.6,101.9,168,102,168.5,102z"/>
		<path class="st2" d="M173.5,104.6l0-2.7h9v2.7h-0.8v-1.9h-7.3l0,1.9H173.5z M180.4,102.3V95h-4l-0.1,2c0,0.6-0.1,1.2-0.1,1.8
			c-0.1,0.6-0.1,1.1-0.2,1.6c-0.1,0.5-0.3,0.8-0.4,1.1c-0.2,0.3-0.4,0.5-0.7,0.5l-1-0.2c0.3,0,0.6-0.1,0.8-0.3
			c0.2-0.2,0.4-0.6,0.5-1c0.1-0.4,0.2-1,0.3-1.6c0.1-0.6,0.1-1.2,0.1-1.9l0.1-2.7h5.7v8H180.4z"/>
		<path class="st2" d="M186.8,101.2l-3.6-6.9h0.9l3.2,6.2L186.8,101.2z M184.2,101.8c0.4,0.2,0.8,0.2,1.2,0.1c0.4-0.1,0.7-0.4,1-0.8
			l0.4-0.6l0.1-0.1l3.2-6.1h0.9l-3.8,7c-0.3,0.5-0.6,0.9-0.9,1.1c-0.3,0.2-0.7,0.4-1.1,0.4c-0.4,0-0.8-0.1-1.2-0.2L184.2,101.8z"/>
		<path class="st2" d="M192.3,102.7v-8.4h0.9v8.4H192.3z M192.9,98.8V98h2.6v0.8H192.9z M195.6,98.6l-0.8-0.1l3.1-4.2h1L195.6,98.6z
			 M198.1,102.7l-3.2-4.2l0.7-0.4l3.5,4.6H198.1z"/>
		<path class="st2" d="M202.1,102.7v-7.9l0.2,0.2h-3.2v-0.8h6.8V95h-3.2l0.2-0.2v7.9H202.1z"/>
		<path class="st2" d="M207.4,102.7v-8.4h0.9v7l5.4-7h0.8v8.4h-0.9v-6.9l-5.4,6.9H207.4z"/>
		<path class="st2" d="M224.2,102.7c-0.6,0-1.2-0.1-1.8-0.3s-1-0.5-1.4-0.9c-0.4-0.4-0.7-0.8-0.9-1.4c-0.2-0.5-0.3-1.1-0.3-1.7
			s0.1-1.2,0.3-1.7c0.2-0.5,0.5-1,0.9-1.4c0.4-0.4,0.9-0.7,1.4-0.9s1.1-0.3,1.8-0.3c0.6,0,1.2,0.1,1.8,0.3c0.5,0.2,1,0.5,1.4,0.9
			s0.7,0.8,0.9,1.4c0.2,0.5,0.3,1.1,0.3,1.7s-0.1,1.2-0.3,1.7c-0.2,0.5-0.5,1-0.9,1.4c-0.4,0.4-0.9,0.7-1.4,0.9
			C225.4,102.6,224.8,102.7,224.2,102.7z M224.2,102c0.5,0,1-0.1,1.4-0.3c0.4-0.2,0.8-0.4,1.1-0.7c0.3-0.3,0.6-0.7,0.7-1.1
			c0.2-0.4,0.3-0.9,0.3-1.4s-0.1-1-0.3-1.4c-0.2-0.4-0.4-0.8-0.7-1.1c-0.3-0.3-0.7-0.6-1.1-0.7s-0.9-0.3-1.4-0.3s-1,0.1-1.4,0.3
			c-0.4,0.2-0.8,0.4-1.1,0.7c-0.3,0.3-0.6,0.7-0.7,1.1s-0.3,0.9-0.3,1.4c0,0.5,0.1,1,0.3,1.4c0.2,0.4,0.4,0.8,0.7,1.1
			c0.3,0.3,0.7,0.6,1.1,0.7C223.2,101.9,223.7,102,224.2,102z"/>
		<path class="st2" d="M232.2,102.7v-7.9l0.2,0.2h-3.2v-0.8h6.8V95h-3.2l0.2-0.2v7.9H232.2z"/>
		<path class="st2" d="M241.7,102.7h-0.9v-8.4h0.9V102.7z M247,98.8h-5.4V98h5.4V98.8z M246.9,94.3h0.9v8.4h-0.9V94.3z"/>
		<path class="st2" d="M249.4,102.7l3.8-8.4h0.9l3.8,8.4H257l-3.5-7.9h0.4l-3.5,7.9H249.4z M250.9,100.4l0.3-0.7h4.9l0.3,0.7H250.9z
			"/>
		<path class="st2" d="M258.3,104.6l0-2.7h9v2.7h-0.8v-1.9h-7.3l0,1.9H258.3z M265.1,102.3V95h-4l-0.1,2c0,0.6-0.1,1.2-0.1,1.8
			c-0.1,0.6-0.1,1.1-0.2,1.6c-0.1,0.5-0.3,0.8-0.4,1.1s-0.4,0.5-0.7,0.5l-1-0.2c0.3,0,0.6-0.1,0.8-0.3s0.4-0.6,0.5-1
			c0.1-0.4,0.2-1,0.3-1.6c0.1-0.6,0.1-1.2,0.1-1.9l0.1-2.7h5.7v8H265.1z"/>
		<path class="st2" d="M271.3,102.7v-0.6l3.5-3.4c0.3-0.3,0.6-0.6,0.7-0.8c0.2-0.2,0.3-0.5,0.3-0.7s0.1-0.4,0.1-0.6
			c0-0.5-0.2-0.9-0.5-1.2s-0.8-0.4-1.5-0.4c-0.5,0-0.9,0.1-1.3,0.2c-0.4,0.2-0.7,0.4-1,0.7l-0.6-0.5c0.3-0.4,0.7-0.7,1.3-0.9
			c0.5-0.2,1.1-0.3,1.7-0.3c0.6,0,1.1,0.1,1.5,0.3s0.7,0.4,1,0.8c0.2,0.3,0.3,0.7,0.3,1.2c0,0.3,0,0.5-0.1,0.8
			c-0.1,0.3-0.2,0.5-0.4,0.8c-0.2,0.3-0.5,0.6-0.9,1l-3.2,3.1l-0.2-0.3h5.2v0.8H271.3z"/>
		<path class="st2" d="M281.6,102.7c-0.6,0-1.2-0.2-1.7-0.5c-0.5-0.3-0.9-0.8-1.2-1.5c-0.3-0.6-0.4-1.4-0.4-2.3
			c0-0.9,0.1-1.7,0.4-2.3s0.7-1.1,1.2-1.5s1.1-0.5,1.7-0.5c0.6,0,1.2,0.2,1.7,0.5s0.9,0.8,1.2,1.5s0.4,1.4,0.4,2.3
			c0,0.9-0.1,1.7-0.4,2.3c-0.3,0.6-0.7,1.1-1.2,1.5C282.8,102.6,282.2,102.7,281.6,102.7z M281.6,102c0.5,0,0.9-0.1,1.3-0.4
			c0.4-0.3,0.7-0.7,0.9-1.2c0.2-0.5,0.3-1.2,0.3-1.9s-0.1-1.4-0.3-1.9c-0.2-0.5-0.5-0.9-0.9-1.2c-0.4-0.3-0.8-0.4-1.3-0.4
			c-0.5,0-0.9,0.1-1.3,0.4c-0.4,0.3-0.7,0.7-0.9,1.2c-0.2,0.5-0.3,1.1-0.3,1.9s0.1,1.4,0.3,1.9c0.2,0.5,0.5,0.9,0.9,1.2
			C280.7,101.8,281.1,102,281.6,102z"/>
		<path class="st2" d="M289.5,102.7c-0.6,0-1.2-0.2-1.7-0.5c-0.5-0.3-0.9-0.8-1.2-1.5c-0.3-0.6-0.4-1.4-0.4-2.3
			c0-0.9,0.1-1.7,0.4-2.3s0.7-1.1,1.2-1.5s1.1-0.5,1.7-0.5c0.6,0,1.2,0.2,1.7,0.5s0.9,0.8,1.2,1.5s0.4,1.4,0.4,2.3
			c0,0.9-0.1,1.7-0.4,2.3c-0.3,0.6-0.7,1.1-1.2,1.5C290.7,102.6,290.2,102.7,289.5,102.7z M289.5,102c0.5,0,0.9-0.1,1.3-0.4
			c0.4-0.3,0.7-0.7,0.9-1.2c0.2-0.5,0.3-1.2,0.3-1.9s-0.1-1.4-0.3-1.9c-0.2-0.5-0.5-0.9-0.9-1.2c-0.4-0.3-0.8-0.4-1.3-0.4
			c-0.5,0-0.9,0.1-1.3,0.4c-0.4,0.3-0.7,0.7-0.9,1.2c-0.2,0.5-0.3,1.1-0.3,1.9s0.1,1.4,0.3,1.9c0.2,0.5,0.5,0.9,0.9,1.2
			C288.6,101.8,289,102,289.5,102z"/>
		<path class="st2" d="M302,102.1c-1,0-1.9-0.1-2.6-0.4c-0.7-0.3-1.3-0.7-1.6-1.2s-0.6-1.2-0.6-2c0-0.8,0.2-1.4,0.6-2s0.9-1,1.6-1.2
			c0.7-0.3,1.6-0.4,2.6-0.4c0,0,0,0,0.1,0c0,0,0.1,0,0.1,0s0.1,0,0.1,0c1,0,1.9,0.1,2.6,0.4s1.3,0.7,1.6,1.2s0.6,1.2,0.6,2
			c0,0.8-0.2,1.4-0.6,2s-0.9,1-1.6,1.2c-0.7,0.3-1.6,0.4-2.6,0.4c0,0,0,0-0.1,0C302.2,102.1,302.1,102.1,302,102.1
			C302,102.1,302,102.1,302,102.1z M302.1,101.4C302.1,101.4,302.1,101.4,302.1,101.4C302.2,101.4,302.2,101.4,302.1,101.4
			c0.9,0,1.6-0.1,2.2-0.4c0.6-0.2,1.1-0.6,1.4-1c0.3-0.4,0.5-1,0.5-1.6c0-0.6-0.2-1.2-0.5-1.6c-0.3-0.4-0.8-0.8-1.4-1
			c-0.6-0.2-1.3-0.3-2.1-0.3c0,0,0,0,0,0s0,0-0.1,0c-0.8,0-1.6,0.1-2.2,0.3c-0.6,0.2-1.1,0.6-1.4,1c-0.3,0.4-0.5,1-0.5,1.6
			c0,0.6,0.2,1.2,0.5,1.6c0.3,0.4,0.8,0.8,1.4,1C300.6,101.3,301.3,101.4,302.1,101.4z M301.7,103v-9h0.8v9H301.7z"/>
		<path class="st2" d="M309.9,101.9h5.1v0.8H309v-8.4h5.8V95h-4.9V101.9z M309.8,98h4.4v0.8h-4.4V98z"/>
		<path class="st2" d="M317,102.7v-8.4h3.1c0.7,0,1.3,0.1,1.8,0.3c0.5,0.2,0.9,0.6,1.2,1c0.3,0.4,0.4,0.9,0.4,1.6
			c0,0.6-0.1,1.1-0.4,1.5c-0.3,0.4-0.7,0.8-1.2,1c-0.5,0.2-1.1,0.3-1.8,0.3h-2.7l0.4-0.4v3.1H317z M317.8,99.7l-0.4-0.4h2.6
			c0.8,0,1.5-0.2,1.9-0.5c0.4-0.4,0.7-0.9,0.7-1.5c0-0.7-0.2-1.2-0.7-1.6c-0.4-0.4-1.1-0.6-1.9-0.6h-2.6l0.4-0.4V99.7z"/>
		<path class="st2" d="M325.3,102.7v-8.4h0.7l3.8,6.6h-0.4l3.8-6.6h0.7v8.4h-0.9v-7.1h0.2l-3.5,6h-0.4l-3.5-6h0.2v7.1H325.3z"/>
		<path class="st2" d="M336.9,102.7v-8.4h0.9v7l5.4-7h0.8v8.4h-0.9v-6.9l-5.4,6.9H336.9z"/>
	</g>
</g>
</svg>
