<?xml version="1.0" encoding="utf-8"?>
<!-- Generator: Adobe Illustrator 23.0.3, SVG Export Plug-In . SVG Version: 6.00 Build 0)  -->
<svg version="1.1" id="Layer_1" xmlns="http://www.w3.org/2000/svg" xmlns:xlink="http://www.w3.org/1999/xlink" x="0px" y="0px"
	 width="489px" height="160px" viewBox="0 0 489 160" style="enable-background:new 0 0 489 160;" xml:space="preserve">
<style type="text/css">
	.st0{fill:#FFFFFF;}
	.st1{fill:#4D4D4D;}
	.st2{fill:#FF4900;}
</style>
<rect class="st0" width="489" height="160"/>
<g>
	<g>
		<path d="M149.3,68.7h-2.8V56.8h2.8V68.7z M154.9,63.8h-5.8v-2.3h5.8V63.8z M154.7,56.8h2.8v11.9h-2.8V56.8z"/>
		<path d="M162.7,66.5h6.5v2.2H160V56.8h9V59h-6.3V66.5z M162.5,61.6h5.7v2.1h-5.7V61.6z"/>
		<path d="M173.7,68.7H171V56.8h2.8V68.7z M179.3,63.8h-5.8v-2.3h5.8V63.8z M179.1,56.8h2.8v11.9h-2.8V56.8z"/>
		<path d="M183.1,68.7l5.3-11.9h2.7l5.3,11.9h-2.9l-4.4-10.5h1.1l-4.4,10.5H183.1z M185.8,66.1l0.7-2.1h6.1l0.7,2.1H185.8z"/>
		<path d="M196.4,71.1l0-4.7h13.5v4.7h-2.5v-2.5H199v2.5H196.4z M205.6,67.4V59h-4.1l-0.1,1.7c0,0.7-0.1,1.4-0.1,2.1
			c-0.1,0.7-0.2,1.3-0.3,1.8c-0.1,0.5-0.3,1-0.5,1.4c-0.2,0.4-0.4,0.6-0.7,0.8l-2.9-0.4c0.4,0,0.7-0.1,1-0.4
			c0.3-0.3,0.5-0.7,0.6-1.3c0.2-0.5,0.3-1.2,0.3-1.9c0.1-0.7,0.1-1.5,0.2-2.4l0.1-3.7h9.1v10.7H205.6z"/>
		<path d="M211.4,68.7V56.8h2.3l5.1,8.4h-1.2l5-8.4h2.3l0,11.9h-2.6l0-7.9h0.5l-4,6.7h-1.2l-4.1-6.7h0.6v7.9H211.4z"/>
		<path d="M227.3,68.7V56.8h2.7v7.8l5.7-7.8h2.6v11.9h-2.7v-7.7l-5.7,7.7H227.3z"/>
		<path d="M243.6,68.7h-2.8V56.8h2.8V68.7z M249.2,63.8h-5.8v-2.3h5.8V63.8z M249,56.8h2.8v11.9H249V56.8z"/>
		<path d="M253,68.7l5.3-11.9h2.7l5.3,11.9h-2.9l-4.4-10.5h1.1l-4.4,10.5H253z M255.6,66.1l0.7-2.1h6.1l0.7,2.1H255.6z"/>
		<path d="M269.4,68.7V58.4l0.6,0.6h-4.4v-2.2H276V59h-4.4l0.6-0.6v10.3H269.4z"/>
		<path d="M282.8,68.9c-0.9,0-1.8-0.2-2.6-0.5s-1.5-0.7-2.1-1.3s-1-1.2-1.4-2c-0.3-0.7-0.5-1.6-0.5-2.4s0.2-1.7,0.5-2.4
			c0.3-0.7,0.8-1.4,1.4-2c0.6-0.6,1.3-1,2.1-1.3c0.8-0.3,1.7-0.5,2.6-0.5c0.9,0,1.8,0.2,2.6,0.5c0.8,0.3,1.5,0.7,2.1,1.3
			c0.6,0.6,1,1.2,1.4,1.9s0.5,1.6,0.5,2.5c0,0.9-0.2,1.7-0.5,2.5s-0.8,1.4-1.4,2c-0.6,0.5-1.3,1-2.1,1.3
			C284.6,68.7,283.7,68.9,282.8,68.9z M282.8,66.5c0.5,0,1-0.1,1.5-0.3c0.4-0.2,0.8-0.4,1.2-0.8c0.3-0.3,0.6-0.7,0.8-1.2
			c0.2-0.5,0.3-1,0.3-1.5c0-0.6-0.1-1.1-0.3-1.5c-0.2-0.5-0.4-0.9-0.8-1.2s-0.7-0.6-1.2-0.8c-0.5-0.2-0.9-0.3-1.5-0.3
			c-0.5,0-1,0.1-1.5,0.3c-0.4,0.2-0.8,0.4-1.2,0.8s-0.6,0.7-0.8,1.2c-0.2,0.5-0.3,1-0.3,1.5c0,0.6,0.1,1.1,0.3,1.5
			c0.2,0.5,0.4,0.9,0.8,1.2c0.3,0.3,0.7,0.6,1.2,0.8C281.8,66.4,282.3,66.5,282.8,66.5z"/>
		<path d="M295.4,68.7V56.8h5.2c1.1,0,2,0.2,2.8,0.5s1.4,0.8,1.8,1.5c0.4,0.6,0.6,1.4,0.6,2.3c0,0.9-0.2,1.6-0.6,2.3
			c-0.4,0.6-1,1.1-1.8,1.5s-1.7,0.5-2.8,0.5h-3.6l1.2-1.2v4.5H295.4z M298.1,64.5l-1.2-1.3h3.5c0.9,0,1.5-0.2,1.9-0.5
			c0.4-0.4,0.6-0.9,0.6-1.5c0-0.7-0.2-1.2-0.6-1.5c-0.4-0.4-1.1-0.5-1.9-0.5h-3.5l1.2-1.3V64.5z"/>
		<path d="M305.2,68.7l5.3-11.9h2.7l5.3,11.9h-2.9l-4.4-10.5h1.1L308,68.7H305.2z M307.8,66.1l0.7-2.1h6.1l0.7,2.1H307.8z"/>
		<path d="M318.6,67.6l0.8-2c0.5,0.3,1.1,0.5,1.6,0.7s1.2,0.3,1.7,0.3c0.6,0,1.1,0,1.5-0.2s0.8-0.3,1.1-0.6c0.3-0.2,0.4-0.6,0.4-1
			c0-0.5-0.2-0.8-0.6-1s-0.9-0.3-1.5-0.3h-2.9v-2.1h2.7c0.6,0,1-0.1,1.3-0.3c0.3-0.2,0.5-0.5,0.5-0.9c0-0.3-0.1-0.6-0.3-0.8
			s-0.5-0.4-0.9-0.5c-0.4-0.1-0.8-0.1-1.3-0.1c-0.5,0-1,0.1-1.5,0.2c-0.5,0.1-1,0.4-1.5,0.6l-0.8-2.1c0.8-0.4,1.6-0.7,2.4-0.8
			s1.7-0.2,2.5-0.1c0.8,0.1,1.5,0.3,2.2,0.5c0.6,0.3,1.2,0.7,1.5,1.1c0.4,0.5,0.6,1,0.6,1.6c0,0.6-0.1,1.1-0.4,1.5
			c-0.3,0.4-0.7,0.8-1.2,1c-0.5,0.2-1.1,0.4-1.8,0.4l0.1-0.6c0.8,0,1.5,0.1,2.1,0.4c0.6,0.3,1,0.6,1.4,1.1c0.3,0.5,0.5,1,0.5,1.6
			c0,0.6-0.2,1.1-0.5,1.5c-0.3,0.4-0.7,0.8-1.2,1.1c-0.5,0.3-1.1,0.5-1.8,0.7c-0.7,0.1-1.4,0.2-2.1,0.2c-0.8,0-1.5-0.1-2.3-0.3
			C320,68.3,319.3,68,318.6,67.6z"/>
		<path d="M333.1,68.7h-2.8V56.8h2.8V68.7z M338.8,63.8h-5.8v-2.3h5.8V63.8z M338.5,56.8h2.8v11.9h-2.8V56.8z"/>
		<path d="M349.5,68.9c-0.9,0-1.8-0.2-2.6-0.5s-1.5-0.7-2.1-1.3s-1-1.2-1.4-2c-0.3-0.7-0.5-1.6-0.5-2.4s0.2-1.7,0.5-2.4
			c0.3-0.7,0.8-1.4,1.4-2c0.6-0.6,1.3-1,2.1-1.3c0.8-0.3,1.7-0.5,2.6-0.5c0.9,0,1.8,0.2,2.6,0.5c0.8,0.3,1.5,0.7,2.1,1.3
			c0.6,0.6,1,1.2,1.4,1.9s0.5,1.6,0.5,2.5c0,0.9-0.2,1.7-0.5,2.5s-0.8,1.4-1.4,2c-0.6,0.5-1.3,1-2.1,1.3
			C351.3,68.7,350.5,68.9,349.5,68.9z M349.5,66.5c0.5,0,1-0.1,1.5-0.3c0.4-0.2,0.8-0.4,1.2-0.8c0.3-0.3,0.6-0.7,0.8-1.2
			c0.2-0.5,0.3-1,0.3-1.5c0-0.6-0.1-1.1-0.3-1.5c-0.2-0.5-0.4-0.9-0.8-1.2s-0.7-0.6-1.2-0.8c-0.5-0.2-0.9-0.3-1.5-0.3
			c-0.5,0-1,0.1-1.5,0.3c-0.4,0.2-0.8,0.4-1.2,0.8s-0.6,0.7-0.8,1.2c-0.2,0.5-0.3,1-0.3,1.5c0,0.6,0.1,1.1,0.3,1.5
			c0.2,0.5,0.4,0.9,0.8,1.2c0.3,0.3,0.7,0.6,1.2,0.8C348.5,66.4,349,66.5,349.5,66.5z"/>
		<path d="M363.4,68.9c-0.9,0-1.8-0.2-2.6-0.5s-1.5-0.7-2.1-1.3s-1-1.2-1.4-2c-0.3-0.7-0.5-1.6-0.5-2.4s0.2-1.7,0.5-2.4
			c0.3-0.7,0.8-1.4,1.4-2c0.6-0.6,1.3-1,2.1-1.3c0.8-0.3,1.7-0.5,2.6-0.5c0.9,0,1.8,0.2,2.6,0.5c0.8,0.3,1.5,0.7,2.1,1.3
			c0.6,0.6,1,1.2,1.4,1.9s0.5,1.6,0.5,2.5c0,0.9-0.2,1.7-0.5,2.5s-0.8,1.4-1.4,2c-0.6,0.5-1.3,1-2.1,1.3
			C365.2,68.7,364.4,68.9,363.4,68.9z M363.4,66.5c0.5,0,1-0.1,1.5-0.3c0.4-0.2,0.8-0.4,1.2-0.8c0.3-0.3,0.6-0.7,0.8-1.2
			c0.2-0.5,0.3-1,0.3-1.5c0-0.6-0.1-1.1-0.3-1.5c-0.2-0.5-0.4-0.9-0.8-1.2s-0.7-0.6-1.2-0.8c-0.5-0.2-0.9-0.3-1.5-0.3
			c-0.5,0-1,0.1-1.5,0.3c-0.4,0.2-0.8,0.4-1.2,0.8s-0.6,0.7-0.8,1.2c-0.2,0.5-0.3,1-0.3,1.5c0,0.6,0.1,1.1,0.3,1.5
			c0.2,0.5,0.4,0.9,0.8,1.2c0.3,0.3,0.7,0.6,1.2,0.8C362.4,66.4,362.9,66.5,363.4,66.5z"/>
		<path d="M371.6,68.7V56.8h9.6V59h-6.9v2.4h3.3c1.4,0,2.5,0.3,3.3,0.9c0.8,0.6,1.1,1.5,1.1,2.6c0,1.2-0.4,2.1-1.3,2.8
			c-0.8,0.7-2,1-3.6,1H371.6z M374.4,66.6h2.8c0.7,0,1.2-0.1,1.6-0.4c0.4-0.3,0.6-0.7,0.6-1.2c0-1-0.7-1.6-2.2-1.6h-2.8V66.6z"/>
		<path d="M383.8,68.7V56.8h5.2c1.1,0,2,0.2,2.8,0.5s1.4,0.8,1.8,1.5c0.4,0.6,0.6,1.4,0.6,2.3c0,0.9-0.2,1.6-0.6,2.3
			c-0.4,0.6-1,1.1-1.8,1.5s-1.7,0.5-2.8,0.5h-3.6l1.2-1.2v4.5H383.8z M386.5,64.5l-1.2-1.3h3.5c0.9,0,1.5-0.2,1.9-0.5
			c0.4-0.4,0.6-0.9,0.6-1.5c0-0.7-0.2-1.2-0.6-1.5c-0.4-0.4-1.1-0.5-1.9-0.5h-3.5l1.2-1.3V64.5z"/>
		<path d="M393.5,68.7l5.3-11.9h2.7l5.3,11.9H404l-4.4-10.5h1.1l-4.4,10.5H393.5z M396.2,66.1l0.7-2.1h6.1l0.7,2.1H396.2z"/>
		<path d="M407,67.6l0.8-2c0.5,0.3,1.1,0.5,1.6,0.7s1.2,0.3,1.7,0.3c0.6,0,1.1,0,1.5-0.2s0.8-0.3,1.1-0.6c0.3-0.2,0.4-0.6,0.4-1
			c0-0.5-0.2-0.8-0.6-1s-0.9-0.3-1.5-0.3h-2.9v-2.1h2.7c0.6,0,1-0.1,1.3-0.3c0.3-0.2,0.5-0.5,0.5-0.9c0-0.3-0.1-0.6-0.3-0.8
			s-0.5-0.4-0.9-0.5c-0.4-0.1-0.8-0.1-1.3-0.1c-0.5,0-1,0.1-1.5,0.2c-0.5,0.1-1,0.4-1.5,0.6l-0.8-2.1c0.8-0.4,1.6-0.7,2.4-0.8
			s1.7-0.2,2.5-0.1c0.8,0.1,1.5,0.3,2.2,0.5c0.6,0.3,1.2,0.7,1.5,1.1c0.4,0.5,0.6,1,0.6,1.6c0,0.6-0.1,1.1-0.4,1.5
			c-0.3,0.4-0.7,0.8-1.2,1c-0.5,0.2-1.1,0.4-1.8,0.4l0.1-0.6c0.8,0,1.5,0.1,2.1,0.4c0.6,0.3,1,0.6,1.4,1.1c0.3,0.5,0.5,1,0.5,1.6
			c0,0.6-0.2,1.1-0.5,1.5c-0.3,0.4-0.7,0.8-1.2,1.1c-0.5,0.3-1.1,0.5-1.8,0.7c-0.7,0.1-1.4,0.2-2.1,0.2c-0.8,0-1.5-0.1-2.3-0.3
			C408.4,68.3,407.6,68,407,67.6z"/>
		<path d="M418.8,68.7V56.8h2.7v7.8l5.7-7.8h2.6v11.9H427v-7.7l-5.7,7.7H418.8z"/>
		<path d="M435,66.5h6.5v2.2h-9.2V56.8h9V59H435V66.5z M434.8,61.6h5.7v2.1h-5.7V61.6z"/>
		<path class="st1" d="M150.1,85.7c-0.6,0-1.2-0.1-1.8-0.3s-1-0.5-1.4-0.9c-0.4-0.4-0.7-0.8-0.9-1.4c-0.2-0.5-0.3-1.1-0.3-1.7
			s0.1-1.2,0.3-1.7c0.2-0.5,0.5-1,0.9-1.4s0.9-0.7,1.4-0.9s1.1-0.3,1.8-0.3c0.6,0,1.2,0.1,1.8,0.3c0.5,0.2,1,0.5,1.4,0.9
			s0.7,0.8,0.9,1.4c0.2,0.5,0.3,1.1,0.3,1.7s-0.1,1.2-0.3,1.7c-0.2,0.5-0.5,1-0.9,1.4c-0.4,0.4-0.9,0.7-1.4,0.9
			C151.3,85.6,150.8,85.7,150.1,85.7z M150.1,85c0.5,0,1-0.1,1.4-0.3c0.4-0.2,0.8-0.4,1.1-0.7c0.3-0.3,0.6-0.7,0.7-1.1
			c0.2-0.4,0.3-0.9,0.3-1.4s-0.1-1-0.3-1.4c-0.2-0.4-0.4-0.8-0.7-1.1c-0.3-0.3-0.7-0.6-1.1-0.7c-0.4-0.2-0.9-0.3-1.4-0.3
			s-1,0.1-1.4,0.3c-0.4,0.2-0.8,0.4-1.1,0.7c-0.3,0.3-0.6,0.7-0.7,1.1c-0.2,0.4-0.3,0.9-0.3,1.4c0,0.5,0.1,1,0.3,1.4
			c0.2,0.4,0.4,0.8,0.7,1.1c0.3,0.3,0.7,0.6,1.1,0.7C149.1,84.9,149.6,85,150.1,85z"/>
		<path class="st1" d="M157.9,85.7v-7.9l0.2,0.2h-3.2v-0.8h6.8V78h-3.2l0.2-0.2v7.9H157.9z"/>
		<path class="st1" d="M161.9,85.7c-0.1,0-0.2,0-0.3,0c-0.1,0-0.2,0-0.3-0.1l0.1-0.8c0.1,0,0.3,0,0.4,0c0.4,0,0.6-0.1,0.9-0.4
			c0.2-0.3,0.4-0.7,0.5-1.3c0.1-0.6,0.2-1.4,0.2-2.3l0.1-3.6h5.7v8.4h-0.9v-7.9l0.2,0.2H164l0.2-0.3l-0.1,3.1c0,0.8-0.1,1.6-0.2,2.2
			c-0.1,0.6-0.2,1.1-0.4,1.5c-0.2,0.4-0.4,0.7-0.6,0.9C162.6,85.6,162.3,85.7,161.9,85.7z"/>
		<path class="st1" d="M171.7,85.7v-8.4h0.9v7l5.4-7h0.8v8.4h-0.9v-6.9l-5.4,6.9H171.7z"/>
		<path class="st1" d="M186.2,82.1c-0.5,0.2-1,0.4-1.4,0.5c-0.5,0.1-0.9,0.2-1.4,0.2c-1,0-1.8-0.2-2.3-0.7c-0.5-0.5-0.8-1.1-0.8-2
			v-2.8h0.9v2.7c0,0.6,0.2,1.2,0.6,1.5c0.4,0.4,1,0.5,1.7,0.5c0.4,0,0.9-0.1,1.3-0.2s0.9-0.3,1.4-0.5V82.1z M186.1,85.7v-8.4h0.9
			v8.4H186.1z"/>
		<path class="st1" d="M190.4,84.9h5.1v0.8h-5.9v-8.4h5.8V78h-4.9V84.9z M190.3,81h4.4v0.8h-4.4V81z"/>
		<path class="st1" d="M198,85.7h-0.9v-8.4h0.9V85.7z M203.3,81.8h-5.4V81h5.4V81.8z M203.2,77.3h0.9v8.4h-0.9V77.3z"/>
		<path class="st1" d="M209.5,85.7v-8.4h0.9v7l5.4-7h0.8v8.4h-0.9v-6.9l-5.4,6.9H209.5z"/>
		<path class="st1" d="M218.1,84.7l0.3-0.6c0.4,0.3,0.8,0.6,1.2,0.7c0.5,0.2,0.9,0.2,1.4,0.2c0.5,0,0.9-0.1,1.3-0.2
			c0.4-0.1,0.7-0.3,0.9-0.6c0.2-0.3,0.4-0.6,0.4-1c0-0.5-0.2-0.9-0.6-1.1c-0.4-0.3-0.9-0.4-1.6-0.4h-1.8V81h1.8
			c0.6,0,1.1-0.1,1.4-0.4s0.5-0.6,0.5-1c0-0.3-0.1-0.6-0.3-0.8c-0.2-0.2-0.4-0.4-0.8-0.5s-0.7-0.2-1.1-0.2c-0.4,0-0.8,0-1.2,0.2
			s-0.8,0.3-1.2,0.5l-0.3-0.7c0.5-0.3,1-0.5,1.5-0.6c0.5-0.1,1.1-0.2,1.6-0.1s1,0.2,1.4,0.3c0.4,0.2,0.7,0.4,1,0.8
			c0.2,0.3,0.4,0.7,0.4,1.1c0,0.4-0.1,0.8-0.3,1.1c-0.2,0.3-0.5,0.5-0.9,0.7c-0.4,0.2-0.8,0.2-1.3,0.2l0-0.3c0.6,0,1,0.1,1.5,0.3
			c0.4,0.2,0.7,0.4,1,0.8c0.2,0.3,0.3,0.7,0.3,1.1c0,0.4-0.1,0.8-0.3,1.1c-0.2,0.3-0.5,0.6-0.8,0.8c-0.4,0.2-0.8,0.4-1.2,0.5
			c-0.4,0.1-0.9,0.1-1.4,0.1c-0.5,0-1-0.1-1.4-0.3S218.5,85,218.1,84.7z"/>
		<path class="st1" d="M226.4,85.7v-8.4h6.1V78h-5.3v2.7h2.7c1,0,1.7,0.2,2.3,0.6c0.5,0.4,0.8,1,0.8,1.8c0,0.8-0.3,1.4-0.8,1.9
			c-0.6,0.4-1.4,0.6-2.4,0.6H226.4z M227.3,85h2.5c0.8,0,1.4-0.2,1.8-0.5c0.4-0.3,0.6-0.7,0.6-1.3c0-1.1-0.8-1.7-2.4-1.7h-2.5V85z"
			/>
		<path class="st1" d="M238.5,85.7c-0.6,0-1.2-0.1-1.8-0.3s-1-0.5-1.4-0.9c-0.4-0.4-0.7-0.8-0.9-1.4c-0.2-0.5-0.3-1.1-0.3-1.7
			s0.1-1.2,0.3-1.7c0.2-0.5,0.5-1,0.9-1.4c0.4-0.4,0.9-0.7,1.4-0.9s1.1-0.3,1.8-0.3c0.6,0,1.2,0.1,1.8,0.3c0.5,0.2,1,0.5,1.4,0.9
			s0.7,0.8,0.9,1.4c0.2,0.5,0.3,1.1,0.3,1.7s-0.1,1.2-0.3,1.7c-0.2,0.5-0.5,1-0.9,1.4c-0.4,0.4-0.9,0.7-1.4,0.9
			C239.7,85.6,239.1,85.7,238.5,85.7z M238.5,85c0.5,0,1-0.1,1.4-0.3c0.4-0.2,0.8-0.4,1.1-0.7c0.3-0.3,0.6-0.7,0.7-1.1
			c0.2-0.4,0.3-0.9,0.3-1.4s-0.1-1-0.3-1.4c-0.2-0.4-0.4-0.8-0.7-1.1c-0.3-0.3-0.7-0.6-1.1-0.7S239,78,238.5,78s-1,0.1-1.4,0.3
			c-0.4,0.2-0.8,0.4-1.1,0.7c-0.3,0.3-0.6,0.7-0.7,1.1S235,81,235,81.5c0,0.5,0.1,1,0.3,1.4c0.2,0.4,0.4,0.8,0.7,1.1
			c0.3,0.3,0.7,0.6,1.1,0.7C237.5,84.9,238,85,238.5,85z"/>
		<path class="st1" d="M244.7,85.7v-8.4h3.1c0.7,0,1.3,0.1,1.8,0.3c0.5,0.2,0.9,0.6,1.2,1c0.3,0.4,0.4,0.9,0.4,1.6
			c0,0.6-0.1,1.1-0.4,1.5c-0.3,0.4-0.7,0.8-1.2,1c-0.5,0.2-1.1,0.3-1.8,0.3h-2.7l0.4-0.4v3.1H244.7z M245.6,82.7l-0.4-0.4h2.6
			c0.8,0,1.5-0.2,1.9-0.5c0.4-0.4,0.7-0.9,0.7-1.5c0-0.7-0.2-1.2-0.7-1.6c-0.4-0.4-1.1-0.6-1.9-0.6h-2.6l0.4-0.4V82.7z"/>
		<path class="st1" d="M259.5,85.7c-0.6,0-1.2-0.1-1.8-0.3s-1-0.5-1.4-0.9c-0.4-0.4-0.7-0.8-0.9-1.4c-0.2-0.5-0.3-1.1-0.3-1.7
			s0.1-1.2,0.3-1.7c0.2-0.5,0.5-1,0.9-1.4c0.4-0.4,0.9-0.7,1.4-0.9s1.1-0.3,1.8-0.3c0.6,0,1.2,0.1,1.8,0.3c0.5,0.2,1,0.5,1.4,0.9
			s0.7,0.8,0.9,1.4c0.2,0.5,0.3,1.1,0.3,1.7s-0.1,1.2-0.3,1.7c-0.2,0.5-0.5,1-0.9,1.4c-0.4,0.4-0.9,0.7-1.4,0.9
			C260.7,85.6,260.1,85.7,259.5,85.7z M259.5,85c0.5,0,1-0.1,1.4-0.3c0.4-0.2,0.8-0.4,1.1-0.7c0.3-0.3,0.6-0.7,0.7-1.1
			c0.2-0.4,0.3-0.9,0.3-1.4s-0.1-1-0.3-1.4c-0.2-0.4-0.4-0.8-0.7-1.1c-0.3-0.3-0.7-0.6-1.1-0.7S260,78,259.5,78s-1,0.1-1.4,0.3
			c-0.4,0.2-0.8,0.4-1.1,0.7c-0.3,0.3-0.6,0.7-0.7,1.1s-0.3,0.9-0.3,1.4c0,0.5,0.1,1,0.3,1.4c0.2,0.4,0.4,0.8,0.7,1.1
			c0.3,0.3,0.7,0.6,1.1,0.7C258.5,84.9,259,85,259.5,85z"/>
		<path class="st1" d="M267.3,85.7v-7.9l0.2,0.2h-3.2v-0.8h6.8V78h-3.2l0.2-0.2v7.9H267.3z"/>
		<path class="st1" d="M275.2,85.7v-8.4h7.1v8.4h-0.9v-7.9l0.2,0.2h-5.8l0.2-0.2v7.9H275.2z"/>
		<path class="st1" d="M284.8,85.7v-8.4h3.1c0.7,0,1.3,0.1,1.8,0.3c0.5,0.2,0.9,0.6,1.2,1c0.3,0.4,0.4,0.9,0.4,1.6
			c0,0.6-0.1,1.1-0.4,1.5c-0.3,0.4-0.7,0.8-1.2,1c-0.5,0.2-1.1,0.3-1.8,0.3h-2.7l0.4-0.4v3.1H284.8z M285.7,82.7l-0.4-0.4h2.6
			c0.8,0,1.5-0.2,1.9-0.5c0.4-0.4,0.7-0.9,0.7-1.5c0-0.7-0.2-1.2-0.7-1.6c-0.4-0.4-1.1-0.6-1.9-0.6h-2.6l0.4-0.4V82.7z"/>
		<path class="st1" d="M296.7,85.7c-0.6,0-1.2-0.1-1.8-0.3s-1-0.5-1.4-0.9c-0.4-0.4-0.7-0.8-0.9-1.4c-0.2-0.5-0.3-1.1-0.3-1.7
			s0.1-1.2,0.3-1.7c0.2-0.5,0.5-1,0.9-1.4c0.4-0.4,0.9-0.7,1.4-0.9s1.1-0.3,1.8-0.3c0.6,0,1.2,0.1,1.8,0.3c0.5,0.2,1,0.5,1.4,0.9
			s0.7,0.8,0.9,1.4c0.2,0.5,0.3,1.1,0.3,1.7s-0.1,1.2-0.3,1.7c-0.2,0.5-0.5,1-0.9,1.4c-0.4,0.4-0.9,0.7-1.4,0.9
			C297.9,85.6,297.3,85.7,296.7,85.7z M296.7,85c0.5,0,1-0.1,1.4-0.3c0.4-0.2,0.8-0.4,1.1-0.7c0.3-0.3,0.6-0.7,0.7-1.1
			c0.2-0.4,0.3-0.9,0.3-1.4s-0.1-1-0.3-1.4c-0.2-0.4-0.4-0.8-0.7-1.1c-0.3-0.3-0.7-0.6-1.1-0.7s-0.9-0.3-1.4-0.3s-1,0.1-1.4,0.3
			c-0.4,0.2-0.8,0.4-1.1,0.7c-0.3,0.3-0.6,0.7-0.7,1.1s-0.3,0.9-0.3,1.4c0,0.5,0.1,1,0.3,1.4c0.2,0.4,0.4,0.8,0.7,1.1
			c0.3,0.3,0.7,0.6,1.1,0.7C295.7,84.9,296.2,85,296.7,85z"/>
		<path class="st1" d="M301.4,87.6l0-2.7h9v2.7h-0.8v-1.9h-7.3l0,1.9H301.4z M308.2,85.3V78h-4l-0.1,2c0,0.6-0.1,1.2-0.1,1.8
			c-0.1,0.6-0.1,1.1-0.2,1.6c-0.1,0.5-0.3,0.8-0.4,1.1s-0.4,0.5-0.7,0.5l-1-0.2c0.3,0,0.6-0.1,0.8-0.3s0.4-0.6,0.5-1
			c0.1-0.4,0.2-1,0.3-1.6c0.1-0.6,0.1-1.2,0.1-1.9l0.1-2.7h5.7v8H308.2z"/>
		<path class="st1" d="M314.4,84.2l-3.6-6.9h0.9l3.2,6.2L314.4,84.2z M311.7,84.8c0.4,0.2,0.8,0.2,1.2,0.1c0.4-0.1,0.7-0.4,1-0.8
			l0.4-0.6l0.1-0.1l3.2-6.1h0.9l-3.8,7c-0.3,0.5-0.6,0.9-0.9,1.1c-0.3,0.2-0.7,0.4-1.1,0.4c-0.4,0-0.8-0.1-1.2-0.2L311.7,84.8z"/>
		<path class="st1" d="M319.6,85.7v-8.4h0.9v8.4H319.6z M320.2,81.8V81h2.6v0.8H320.2z M322.9,81.6l-0.8-0.1l3.1-4.2h1L322.9,81.6z
			 M325.3,85.7l-3.2-4.2l0.7-0.4l3.5,4.6H325.3z"/>
		<path class="st1" d="M329,85.7v-7.9l0.2,0.2h-3.2v-0.8h6.8V78h-3.2l0.2-0.2v7.9H329z"/>
		<path class="st1" d="M334.1,85.7v-8.4h0.9v7l5.4-7h0.8v8.4h-0.9v-6.9l-5.4,6.9H334.1z"/>
		<path class="st1" d="M347.4,85.7h-0.9v-8.4h0.9V85.7z M352.8,81.8h-5.4V81h5.4V81.8z M352.7,77.3h0.9v8.4h-0.9V77.3z"/>
		<path class="st1" d="M354.8,85.7l3.8-8.4h0.9l3.8,8.4h-0.9l-3.5-7.9h0.4l-3.5,7.9H354.8z M356.4,83.4l0.3-0.7h4.9l0.3,0.7H356.4z"
			/>
		<path class="st1" d="M368.4,85.7h-0.9v-8.4h0.9V85.7z M373.8,81.8h-5.4V81h5.4V81.8z M373.7,77.3h0.9v8.4h-0.9V77.3z"/>
		<path class="st1" d="M375.9,85.7l3.8-8.4h0.9l3.8,8.4h-0.9l-3.5-7.9h0.4l-3.5,7.9H375.9z M377.4,83.4l0.3-0.7h4.9l0.3,0.7H377.4z"
			/>
		<path class="st1" d="M384.4,87.6l0-2.7h9v2.7h-0.8v-1.9h-7.3l0,1.9H384.4z M391.3,85.3V78h-4l-0.1,2c0,0.6-0.1,1.2-0.1,1.8
			c-0.1,0.6-0.1,1.1-0.2,1.6c-0.1,0.5-0.3,0.8-0.4,1.1s-0.4,0.5-0.7,0.5l-1-0.2c0.3,0,0.6-0.1,0.8-0.3s0.4-0.6,0.5-1
			c0.1-0.4,0.2-1,0.3-1.6c0.1-0.6,0.1-1.2,0.1-1.9l0.1-2.7h5.7v8H391.3z"/>
		<path class="st1" d="M396.9,85.7v-0.6l3.5-3.4c0.3-0.3,0.6-0.6,0.7-0.8c0.2-0.2,0.3-0.5,0.3-0.7s0.1-0.4,0.1-0.6
			c0-0.5-0.2-0.9-0.5-1.2s-0.8-0.4-1.5-0.4c-0.5,0-0.9,0.1-1.3,0.2c-0.4,0.2-0.7,0.4-1,0.7l-0.6-0.5c0.3-0.4,0.7-0.7,1.3-0.9
			c0.5-0.2,1.1-0.3,1.7-0.3c0.6,0,1.1,0.1,1.5,0.3s0.7,0.4,1,0.8c0.2,0.3,0.3,0.7,0.3,1.2c0,0.3,0,0.5-0.1,0.8
			c-0.1,0.3-0.2,0.5-0.4,0.8c-0.2,0.3-0.5,0.6-0.9,1l-3.2,3.1l-0.2-0.3h5.2v0.8H396.9z"/>
		<path class="st1" d="M406.8,85.7c-0.6,0-1.2-0.2-1.7-0.5c-0.5-0.3-0.9-0.8-1.2-1.5c-0.3-0.6-0.4-1.4-0.4-2.3
			c0-0.9,0.1-1.7,0.4-2.3s0.7-1.1,1.2-1.5s1.1-0.5,1.7-0.5c0.6,0,1.2,0.2,1.7,0.5s0.9,0.8,1.2,1.5s0.4,1.4,0.4,2.3
			c0,0.9-0.1,1.7-0.4,2.3c-0.3,0.6-0.7,1.1-1.2,1.5C408.1,85.6,407.5,85.7,406.8,85.7z M406.8,85c0.5,0,0.9-0.1,1.3-0.4
			c0.4-0.3,0.7-0.7,0.9-1.2c0.2-0.5,0.3-1.2,0.3-1.9s-0.1-1.4-0.3-1.9c-0.2-0.5-0.5-0.9-0.9-1.2c-0.4-0.3-0.8-0.4-1.3-0.4
			c-0.5,0-0.9,0.1-1.3,0.4c-0.4,0.3-0.7,0.7-0.9,1.2c-0.2,0.5-0.3,1.1-0.3,1.9s0.1,1.4,0.3,1.9c0.2,0.5,0.5,0.9,0.9,1.2
			C405.9,84.8,406.4,85,406.8,85z"/>
		<path class="st1" d="M414.5,85.7c-0.6,0-1.2-0.2-1.7-0.5c-0.5-0.3-0.9-0.8-1.2-1.5c-0.3-0.6-0.4-1.4-0.4-2.3
			c0-0.9,0.1-1.7,0.4-2.3s0.7-1.1,1.2-1.5s1.1-0.5,1.7-0.5c0.6,0,1.2,0.2,1.7,0.5s0.9,0.8,1.2,1.5s0.4,1.4,0.4,2.3
			c0,0.9-0.1,1.7-0.4,2.3c-0.3,0.6-0.7,1.1-1.2,1.5C415.7,85.6,415.1,85.7,414.5,85.7z M414.5,85c0.5,0,0.9-0.1,1.3-0.4
			c0.4-0.3,0.7-0.7,0.9-1.2c0.2-0.5,0.3-1.2,0.3-1.9s-0.1-1.4-0.3-1.9c-0.2-0.5-0.5-0.9-0.9-1.2c-0.4-0.3-0.8-0.4-1.3-0.4
			c-0.5,0-0.9,0.1-1.3,0.4c-0.4,0.3-0.7,0.7-0.9,1.2c-0.2,0.5-0.3,1.1-0.3,1.9s0.1,1.4,0.3,1.9c0.2,0.5,0.5,0.9,0.9,1.2
			C413.6,84.8,414,85,414.5,85z"/>
		<path class="st1" d="M426.4,85.1c-1,0-1.9-0.1-2.6-0.4c-0.7-0.3-1.3-0.7-1.6-1.2s-0.6-1.2-0.6-2c0-0.8,0.2-1.4,0.6-2
			s0.9-1,1.6-1.2c0.7-0.3,1.6-0.4,2.6-0.4c0,0,0,0,0.1,0c0,0,0.1,0,0.1,0s0.1,0,0.1,0c1,0,1.9,0.1,2.6,0.4s1.3,0.7,1.6,1.2
			s0.6,1.2,0.6,2c0,0.8-0.2,1.4-0.6,2s-0.9,1-1.6,1.2c-0.7,0.3-1.6,0.4-2.6,0.4c0,0,0,0-0.1,0C426.5,85.1,426.5,85.1,426.4,85.1
			C426.4,85.1,426.4,85.1,426.4,85.1z M426.5,84.4C426.5,84.4,426.5,84.4,426.5,84.4C426.6,84.4,426.6,84.4,426.5,84.4
			c0.9,0,1.6-0.1,2.2-0.4c0.6-0.2,1.1-0.6,1.4-1c0.3-0.4,0.5-1,0.5-1.6c0-0.6-0.2-1.2-0.5-1.6c-0.3-0.4-0.8-0.8-1.4-1
			c-0.6-0.2-1.3-0.3-2.1-0.3c0,0,0,0,0,0s0,0-0.1,0c-0.8,0-1.6,0.1-2.2,0.3c-0.6,0.2-1.1,0.6-1.4,1c-0.3,0.4-0.5,1-0.5,1.6
			c0,0.6,0.2,1.2,0.5,1.6c0.3,0.4,0.8,0.8,1.4,1C424.9,84.3,425.7,84.4,426.5,84.4z M426.1,86v-9h0.8v9H426.1z"/>
		<path class="st1" d="M434,84.9h5.1v0.8h-5.9v-8.4h5.8V78H434V84.9z M433.9,81h4.4v0.8h-4.4V81z"/>
		<path class="st1" d="M440.7,85.7v-8.4h3.1c0.7,0,1.3,0.1,1.8,0.3c0.5,0.2,0.9,0.6,1.2,1c0.3,0.4,0.4,0.9,0.4,1.6
			c0,0.6-0.1,1.1-0.4,1.5c-0.3,0.4-0.7,0.8-1.2,1c-0.5,0.2-1.1,0.3-1.8,0.3h-2.7l0.4-0.4v3.1H440.7z M441.6,82.7l-0.4-0.4h2.6
			c0.8,0,1.5-0.2,1.9-0.5c0.4-0.4,0.7-0.9,0.7-1.5c0-0.7-0.2-1.2-0.7-1.6c-0.4-0.4-1.1-0.6-1.9-0.6h-2.6l0.4-0.4V82.7z"/>
		<path class="st1" d="M448.8,85.7v-8.4h0.7l3.8,6.6H453l3.8-6.6h0.7v8.4h-0.9v-7.1h0.2l-3.5,6H453l-3.5-6h0.2v7.1H448.8z"/>
		<path class="st1" d="M460.1,85.7v-8.4h0.9v7l5.4-7h0.8v8.4h-0.9v-6.9l-5.4,6.9H460.1z"/>
		<path class="st1" d="M145.4,101.7l0.3-0.6c0.4,0.3,0.8,0.6,1.2,0.7c0.5,0.2,0.9,0.2,1.4,0.2c0.5,0,0.9-0.1,1.3-0.2
			c0.4-0.1,0.7-0.3,0.9-0.6c0.2-0.3,0.4-0.6,0.4-1c0-0.5-0.2-0.9-0.6-1.1c-0.4-0.3-0.9-0.4-1.6-0.4H147V98h1.8
			c0.6,0,1.1-0.1,1.4-0.4c0.3-0.3,0.5-0.6,0.5-1c0-0.3-0.1-0.6-0.3-0.8c-0.2-0.2-0.4-0.4-0.8-0.5s-0.7-0.2-1.1-0.2
			c-0.4,0-0.8,0-1.2,0.2c-0.4,0.1-0.8,0.3-1.2,0.5l-0.3-0.7c0.5-0.3,1-0.5,1.5-0.6s1.1-0.2,1.6-0.1s1,0.2,1.4,0.3
			c0.4,0.2,0.7,0.4,1,0.8c0.2,0.3,0.4,0.7,0.4,1.1c0,0.4-0.1,0.8-0.3,1.1c-0.2,0.3-0.5,0.5-0.9,0.7c-0.4,0.2-0.8,0.2-1.3,0.2l0-0.3
			c0.6,0,1,0.1,1.5,0.3c0.4,0.2,0.7,0.4,1,0.8c0.2,0.3,0.3,0.7,0.3,1.1c0,0.4-0.1,0.8-0.3,1.1c-0.2,0.3-0.5,0.6-0.8,0.8
			s-0.8,0.4-1.2,0.5c-0.4,0.1-0.9,0.1-1.4,0.1s-1-0.1-1.4-0.3C146.3,102.2,145.8,102,145.4,101.7z"/>
		<path class="st1" d="M154.7,101.9h5.1v0.8h-5.9v-8.4h5.8V95h-4.9V101.9z M154.6,98h4.4v0.8h-4.4V98z"/>
		<path class="st1" d="M160.8,102.7c-0.1,0-0.2,0-0.3,0c-0.1,0-0.2,0-0.3-0.1l0.1-0.8c0.1,0,0.3,0,0.4,0c0.4,0,0.6-0.1,0.9-0.4
			c0.2-0.3,0.4-0.7,0.5-1.3c0.1-0.6,0.2-1.4,0.2-2.3l0.1-3.6h5.7v8.4h-0.9v-7.9l0.2,0.2h-4.5l0.2-0.3l-0.1,3.1
			c0,0.8-0.1,1.6-0.2,2.2c-0.1,0.6-0.2,1.1-0.4,1.5c-0.2,0.4-0.4,0.7-0.6,0.9C161.5,102.6,161.1,102.7,160.8,102.7z"/>
		<path class="st1" d="M171.4,101.9h5.1v0.8h-5.9v-8.4h5.8V95h-4.9V101.9z M171.3,98h4.4v0.8h-4.4V98z"/>
		<path class="st1" d="M179,102.7h-0.9v-8.4h0.9V102.7z M184.3,98.8h-5.4V98h5.4V98.8z M184.2,94.3h0.9v8.4h-0.9V94.3z"/>
		<path class="st1" d="M192.6,99.1c-0.5,0.2-1,0.4-1.4,0.5c-0.5,0.1-0.9,0.2-1.4,0.2c-1,0-1.8-0.2-2.3-0.7c-0.5-0.5-0.8-1.1-0.8-2
			v-2.8h0.9v2.7c0,0.6,0.2,1.2,0.6,1.5c0.4,0.4,1,0.5,1.7,0.5c0.4,0,0.9-0.1,1.3-0.2s0.9-0.3,1.4-0.5V99.1z M192.5,102.7v-8.4h0.9
			v8.4H192.5z"/>
		<path class="st1" d="M198.4,101.2l-3.6-6.9h0.9l3.2,6.2L198.4,101.2z M195.7,101.8c0.4,0.2,0.8,0.2,1.2,0.1c0.4-0.1,0.7-0.4,1-0.8
			l0.4-0.6l0.1-0.1l3.2-6.1h0.9l-3.8,7c-0.3,0.5-0.6,0.9-0.9,1.1c-0.3,0.2-0.7,0.4-1.1,0.4c-0.4,0-0.8-0.1-1.2-0.2L195.7,101.8z"/>
		<path class="st1" d="M203.6,102.7v-8.4h0.9v7.6h5.1v-7.6h0.9v8.4H203.6z M210.9,104.6v-2.2l0.2,0.2h-1.6v-0.8h2.2v2.7H210.9z"/>
		<path class="st1" d="M213.2,102.7v-8.4h0.9v7l5.4-7h0.8v8.4h-0.9v-6.9l-5.4,6.9H213.2z"/>
		<path class="st1" d="M222,104.4l0.5-2.2l0.1,0.5c-0.2,0-0.3-0.1-0.5-0.2s-0.2-0.3-0.2-0.5c0-0.2,0.1-0.3,0.2-0.5s0.3-0.2,0.5-0.2
			c0.2,0,0.3,0.1,0.5,0.2c0.1,0.1,0.2,0.3,0.2,0.5c0,0.1,0,0.1,0,0.2c0,0.1,0,0.1,0,0.2c0,0.1-0.1,0.2-0.1,0.3l-0.5,1.7H222z"/>
		<path class="st1" d="M227.9,102.7v-8.4h7.1v8.4h-0.9v-7.9l0.2,0.2h-5.8l0.2-0.2v7.9H227.9z"/>
		<path class="st1" d="M236.7,102.7c-0.1,0-0.2,0-0.3,0c-0.1,0-0.2,0-0.3-0.1l0.1-0.8c0.1,0,0.3,0,0.4,0c0.4,0,0.7-0.1,0.9-0.4
			s0.4-0.7,0.5-1.3s0.2-1.4,0.2-2.3l0.1-3.6h5.7v8.4H243v-7.9l0.2,0.2h-4.5l0.2-0.3l-0.1,3.1c0,0.8-0.1,1.6-0.2,2.2
			c-0.1,0.6-0.2,1.1-0.4,1.5c-0.2,0.4-0.4,0.7-0.6,0.9C237.4,102.6,237.1,102.7,236.7,102.7z"/>
		<path class="st1" d="M250.1,102.7c-0.6,0-1.2-0.1-1.8-0.3s-1-0.5-1.4-0.9c-0.4-0.4-0.7-0.8-0.9-1.4c-0.2-0.5-0.3-1.1-0.3-1.7
			s0.1-1.2,0.3-1.7c0.2-0.5,0.5-1,0.9-1.4c0.4-0.4,0.9-0.7,1.4-0.9s1.1-0.3,1.8-0.3c0.6,0,1.2,0.1,1.8,0.3c0.5,0.2,1,0.5,1.4,0.9
			s0.7,0.8,0.9,1.4c0.2,0.5,0.3,1.1,0.3,1.7s-0.1,1.2-0.3,1.7c-0.2,0.5-0.5,1-0.9,1.4c-0.4,0.4-0.9,0.7-1.4,0.9
			C251.4,102.6,250.8,102.7,250.1,102.7z M250.1,102c0.5,0,1-0.1,1.4-0.3c0.4-0.2,0.8-0.4,1.1-0.7c0.3-0.3,0.6-0.7,0.7-1.1
			c0.2-0.4,0.3-0.9,0.3-1.4s-0.1-1-0.3-1.4c-0.2-0.4-0.4-0.8-0.7-1.1c-0.3-0.3-0.7-0.6-1.1-0.7s-0.9-0.3-1.4-0.3s-1,0.1-1.4,0.3
			c-0.4,0.2-0.8,0.4-1.1,0.7c-0.3,0.3-0.6,0.7-0.7,1.1s-0.3,0.9-0.3,1.4c0,0.5,0.1,1,0.3,1.4c0.2,0.4,0.4,0.8,0.7,1.1
			c0.3,0.3,0.7,0.6,1.1,0.7C249.2,101.9,249.6,102,250.1,102z"/>
		<path class="st1" d="M254.8,104.6l0-2.7h9v2.7H263v-1.9h-7.3l0,1.9H254.8z M261.7,102.3V95h-4l-0.1,2c0,0.6-0.1,1.2-0.1,1.8
			c-0.1,0.6-0.1,1.1-0.2,1.6c-0.1,0.5-0.3,0.8-0.4,1.1s-0.4,0.5-0.7,0.5l-1-0.2c0.3,0,0.6-0.1,0.8-0.3s0.4-0.6,0.5-1
			c0.1-0.4,0.2-1,0.3-1.6c0.1-0.6,0.1-1.2,0.1-1.9l0.1-2.7h5.7v8H261.7z"/>
		<path class="st1" d="M269,102.7c-0.6,0-1.2-0.1-1.8-0.3s-1-0.5-1.4-0.9c-0.4-0.4-0.7-0.8-0.9-1.4c-0.2-0.5-0.3-1.1-0.3-1.7
			s0.1-1.2,0.3-1.7c0.2-0.5,0.5-1,0.9-1.4c0.4-0.4,0.9-0.7,1.4-0.9s1.1-0.3,1.8-0.3c0.6,0,1.2,0.1,1.8,0.3c0.5,0.2,1,0.5,1.4,0.9
			s0.7,0.8,0.9,1.4c0.2,0.5,0.3,1.1,0.3,1.7s-0.1,1.2-0.3,1.7c-0.2,0.5-0.5,1-0.9,1.4c-0.4,0.4-0.9,0.7-1.4,0.9
			C270.3,102.6,269.7,102.7,269,102.7z M269,102c0.5,0,1-0.1,1.4-0.3c0.4-0.2,0.8-0.4,1.1-0.7c0.3-0.3,0.6-0.7,0.7-1.1
			c0.2-0.4,0.3-0.9,0.3-1.4s-0.1-1-0.3-1.4c-0.2-0.4-0.4-0.8-0.7-1.1c-0.3-0.3-0.7-0.6-1.1-0.7S269.5,95,269,95s-1,0.1-1.4,0.3
			c-0.4,0.2-0.8,0.4-1.1,0.7c-0.3,0.3-0.6,0.7-0.7,1.1s-0.3,0.9-0.3,1.4c0,0.5,0.1,1,0.3,1.4c0.2,0.4,0.4,0.8,0.7,1.1
			c0.3,0.3,0.7,0.6,1.1,0.7C268.1,101.9,268.5,102,269,102z"/>
		<path class="st1" d="M275.3,102.7v-8.4h3.5c0.9,0,1.6,0.2,2.1,0.5c0.5,0.4,0.8,0.9,0.8,1.6c0,0.7-0.2,1.2-0.7,1.6
			c-0.5,0.4-1.1,0.5-1.9,0.5l0.2-0.3c0.9,0,1.6,0.2,2.1,0.6c0.5,0.4,0.7,0.9,0.7,1.6c0,0.7-0.3,1.3-0.8,1.7
			c-0.5,0.4-1.3,0.6-2.3,0.6H275.3z M276.1,98.1h2.6c0.6,0,1.1-0.1,1.5-0.4c0.3-0.3,0.5-0.6,0.5-1.2c0-0.5-0.2-0.9-0.5-1.2
			c-0.3-0.3-0.8-0.4-1.5-0.4h-2.6V98.1z M276.1,102h2.8c0.7,0,1.3-0.1,1.6-0.4c0.4-0.3,0.6-0.7,0.6-1.2c0-0.5-0.2-0.9-0.6-1.2
			c-0.4-0.3-0.9-0.4-1.6-0.4h-2.8V102z"/>
		<path class="st1" d="M284.8,101.9h5.1v0.8H284v-8.4h5.8V95h-4.9V101.9z M284.7,98h4.4v0.8h-4.4V98z"/>
		<path class="st1" d="M290.9,104.4l0.5-2.2l0.1,0.5c-0.2,0-0.3-0.1-0.5-0.2s-0.2-0.3-0.2-0.5c0-0.2,0.1-0.3,0.2-0.5
			s0.3-0.2,0.5-0.2c0.2,0,0.3,0.1,0.5,0.2c0.1,0.1,0.2,0.3,0.2,0.5c0,0.1,0,0.1,0,0.2c0,0.1,0,0.1,0,0.2c0,0.1-0.1,0.2-0.1,0.3
			l-0.5,1.7H290.9z"/>
		<path class="st1" d="M296.8,102.7v-8.4h0.7l3.8,6.6H301l3.8-6.6h0.7v8.4h-0.9v-7.1h0.2l-3.5,6h-0.4l-3.5-6h0.2v7.1H296.8z"/>
		<path class="st1" d="M307.3,102.7c-0.1,0-0.2,0-0.3,0c-0.1,0-0.2,0-0.3-0.1l0.1-0.8c0.1,0,0.3,0,0.4,0c0.4,0,0.7-0.1,0.9-0.4
			s0.4-0.7,0.5-1.3s0.2-1.4,0.2-2.3l0.1-3.6h5.7v8.4h-0.9v-7.9l0.2,0.2h-4.5l0.2-0.3l-0.1,3.1c0,0.8-0.1,1.6-0.2,2.2
			c-0.1,0.6-0.2,1.1-0.4,1.5c-0.2,0.4-0.4,0.7-0.6,0.9C308,102.6,307.7,102.7,307.3,102.7z"/>
		<path class="st1" d="M317.9,101.9h5.1v0.8H317v-8.4h5.8V95h-4.9V101.9z M317.8,98h4.4v0.8h-4.4V98z"/>
		<path class="st1" d="M329.8,99.1c-0.5,0.2-1,0.4-1.4,0.5c-0.5,0.1-0.9,0.2-1.4,0.2c-1,0-1.8-0.2-2.3-0.7c-0.5-0.5-0.8-1.1-0.8-2
			v-2.8h0.9v2.7c0,0.6,0.2,1.2,0.6,1.5s1,0.5,1.7,0.5c0.4,0,0.9-0.1,1.3-0.2s0.9-0.3,1.4-0.5V99.1z M329.7,102.7v-8.4h0.9v8.4H329.7
			z"/>
		<path class="st1" d="M334,102.7h-0.9v-8.4h0.9V102.7z M339.3,98.8h-5.4V98h5.4V98.8z M339.2,94.3h0.9v8.4h-0.9V94.3z"/>
		<path class="st1" d="M342.6,102.7v-8.4h0.9v7l5.4-7h0.8v8.4h-0.9v-6.9l-5.4,6.9H342.6z"/>
		<path class="st1" d="M355.1,102.7v-8.4h0.9v7l5.4-7h0.8v8.4h-0.9v-6.9l-5.4,6.9H355.1z"/>
		<path class="st1" d="M367.5,102.7v-8.4h0.7l3.8,6.6h-0.4l3.8-6.6h0.7v8.4h-0.9v-7.1h0.2l-3.5,6h-0.4l-3.5-6h0.2v7.1H367.5z"/>
		<path class="st1" d="M379.7,102.7h-0.9v-8.4h0.9V102.7z M385,98.8h-5.4V98h5.4V98.8z M384.9,94.3h0.9v8.4h-0.9V94.3z"/>
		<path class="st1" d="M392,102.7c-0.6,0-1.2-0.1-1.8-0.3s-1-0.5-1.4-0.9c-0.4-0.4-0.7-0.8-0.9-1.4c-0.2-0.5-0.3-1.1-0.3-1.7
			s0.1-1.2,0.3-1.7c0.2-0.5,0.5-1,0.9-1.4c0.4-0.4,0.9-0.7,1.4-0.9s1.1-0.3,1.8-0.3c0.6,0,1.2,0.1,1.8,0.3c0.5,0.2,1,0.5,1.4,0.9
			s0.7,0.8,0.9,1.4c0.2,0.5,0.3,1.1,0.3,1.7s-0.1,1.2-0.3,1.7c-0.2,0.5-0.5,1-0.9,1.4c-0.4,0.4-0.9,0.7-1.4,0.9
			C393.2,102.6,392.6,102.7,392,102.7z M392,102c0.5,0,1-0.1,1.4-0.3c0.4-0.2,0.8-0.4,1.1-0.7c0.3-0.3,0.6-0.7,0.7-1.1
			c0.2-0.4,0.3-0.9,0.3-1.4s-0.1-1-0.3-1.4c-0.2-0.4-0.4-0.8-0.7-1.1c-0.3-0.3-0.7-0.6-1.1-0.7S392.5,95,392,95s-1,0.1-1.4,0.3
			c-0.4,0.2-0.8,0.4-1.1,0.7c-0.3,0.3-0.6,0.7-0.7,1.1s-0.3,0.9-0.3,1.4c0,0.5,0.1,1,0.3,1.4c0.2,0.4,0.4,0.8,0.7,1.1
			c0.3,0.3,0.7,0.6,1.1,0.7C391,101.9,391.5,102,392,102z"/>
		<path class="st1" d="M398.2,102.7v-8.4h5.3V95h-4.7l0.2-0.2l0,7.9H398.2z"/>
		<path class="st1" d="M407.3,102.7c-0.6,0-1.2-0.1-1.8-0.3s-1-0.5-1.4-0.9c-0.4-0.4-0.7-0.8-0.9-1.4c-0.2-0.5-0.3-1.1-0.3-1.7
			s0.1-1.2,0.3-1.7c0.2-0.5,0.5-1,0.9-1.4c0.4-0.4,0.9-0.7,1.4-0.9s1.1-0.3,1.8-0.3c0.6,0,1.2,0.1,1.8,0.3c0.5,0.2,1,0.5,1.4,0.9
			s0.7,0.8,0.9,1.4c0.2,0.5,0.3,1.1,0.3,1.7s-0.1,1.2-0.3,1.7c-0.2,0.5-0.5,1-0.9,1.4c-0.4,0.4-0.9,0.7-1.4,0.9
			C408.6,102.6,408,102.7,407.3,102.7z M407.3,102c0.5,0,1-0.1,1.4-0.3c0.4-0.2,0.8-0.4,1.1-0.7c0.3-0.3,0.6-0.7,0.7-1.1
			c0.2-0.4,0.3-0.9,0.3-1.4s-0.1-1-0.3-1.4c-0.2-0.4-0.4-0.8-0.7-1.1c-0.3-0.3-0.7-0.6-1.1-0.7s-0.9-0.3-1.4-0.3s-1,0.1-1.4,0.3
			c-0.4,0.2-0.8,0.4-1.1,0.7c-0.3,0.3-0.6,0.7-0.7,1.1s-0.3,0.9-0.3,1.4c0,0.5,0.1,1,0.3,1.4c0.2,0.4,0.4,0.8,0.7,1.1
			c0.3,0.3,0.7,0.6,1.1,0.7C406.4,101.9,406.8,102,407.3,102z"/>
		<path class="st1" d="M415.1,104.6l0-2.7h9v2.7h-0.8v-1.9H416l0,1.9H415.1z M422,102.3V95h-4l-0.1,2c0,0.6-0.1,1.2-0.1,1.8
			c-0.1,0.6-0.1,1.1-0.2,1.6c-0.1,0.5-0.3,0.8-0.4,1.1s-0.4,0.5-0.7,0.5l-1-0.2c0.3,0,0.6-0.1,0.8-0.3s0.4-0.6,0.5-1
			c0.1-0.4,0.2-1,0.3-1.6c0.1-0.6,0.1-1.2,0.1-1.9l0.1-2.7h5.7v8H422z"/>
		<path class="st1" d="M425.6,102.7v-8.4h3.1c0.7,0,1.3,0.1,1.8,0.3c0.5,0.2,0.9,0.6,1.2,1c0.3,0.4,0.4,0.9,0.4,1.6
			c0,0.6-0.1,1.1-0.4,1.5c-0.3,0.4-0.7,0.8-1.2,1c-0.5,0.2-1.1,0.3-1.8,0.3h-2.7l0.4-0.4v3.1H425.6z M426.5,99.7l-0.4-0.4h2.6
			c0.8,0,1.5-0.2,1.9-0.5c0.4-0.4,0.7-0.9,0.7-1.5c0-0.7-0.2-1.2-0.7-1.6c-0.4-0.4-1.1-0.6-1.9-0.6h-2.6l0.4-0.4V99.7z"/>
		<path class="st1" d="M436,101.2l-3.6-6.9h0.9l3.2,6.2L436,101.2z M433.4,101.8c0.4,0.2,0.8,0.2,1.2,0.1c0.4-0.1,0.7-0.4,1-0.8
			l0.4-0.6l0.1-0.1l3.2-6.1h0.9l-3.8,7c-0.3,0.5-0.6,0.9-0.9,1.1c-0.3,0.2-0.7,0.4-1.1,0.4c-0.4,0-0.8-0.1-1.2-0.2L433.4,101.8z"/>
		<path class="st1" d="M441.2,102.7v-8.4h5.3V95h-4.7l0.2-0.2l0,7.9H441.2z"/>
		<path class="st1" d="M447.8,102.7v-8.4h0.9v7l5.4-7h0.8v8.4H454v-6.9l-5.4,6.9H447.8z"/>
		<path class="st1" d="M457.2,102.7c-0.2,0-0.3-0.1-0.5-0.2s-0.2-0.3-0.2-0.5c0-0.2,0.1-0.3,0.2-0.5s0.3-0.2,0.5-0.2
			c0.2,0,0.3,0.1,0.4,0.2s0.2,0.3,0.2,0.5c0,0.2-0.1,0.3-0.2,0.5S457.4,102.7,457.2,102.7z"/>
	</g>
</g>
<g>
	<path class="st2" d="M69.4,93.6c1.9,0.3,4.1,0.6,6.2,0.9c6.6,1,13.1,2,19.7,3c6.1,0.9,12.1,1.9,18.2,2.8c2.3,0.4,3.8,2.2,3.8,4.5
		c0,2.3-1.6,4.1-3.9,4.5c-4,0.6-8,1.2-12,1.9c-7.3,1.1-14.6,2.3-21.9,3.4c-3,0.5-6.1,0.9-9.1,1.4c-6.1,0.9-11.7-3.5-12.6-9.9
		c-0.8-5.8,3.6-11.4,9.5-12.2C68,93.7,68.5,93.7,69.4,93.6z M70.2,111c0-4.2,0-8.2,0-12.3c-0.8,0-1.6,0-2.4,0c0,4.1,0,8.2,0,12.3
		C68.6,111,69.4,111,70.2,111z M80.1,111c0-4.2,0-8.2,0-12.3c-0.8,0-1.6,0-2.4,0c0,4.1,0,8.2,0,12.3C78.5,111,79.3,111,80.1,111z
		 M90,111c0-4.2,0-8.2,0-12.3c-0.8,0-1.6,0-2.4,0c0,4.1,0,8.2,0,12.3C88.4,111,89.2,111,90,111z M100,108.5c0-2.5,0-4.9,0-7.3
		c-0.8,0-1.6,0-2.4,0c0,2.5,0,4.9,0,7.3C98.4,108.5,99.1,108.5,100,108.5z M107.5,102.4c0,1.7,0,3.3,0,4.9c0.8,0,1.6,0,2.4,0
		c0-1.7,0-3.2,0-4.9C109.1,102.4,108.3,102.4,107.5,102.4z"/>
	<path class="st2" d="M77.3,79.4c-2.6-1.2-5.4-1.8-8.3-1.8c0,0.8,0,1.6,0,2.4c1.5,0.2,3,0.4,4.4,0.8c1.4,0.4,2.7,1.1,4,1.7
		c0.2,0.1,0.4,0.5,0.4,0.8c-0.2,3-0.3,6,0.5,8.9c0,0.1,0,0.2,0,0.3c-1.1-0.2-2.2-0.3-3.3-0.5c-1.8-0.3-3.6-0.5-5.4-0.7
		c-3-0.3-5-3.5-4.1-6.4c0.1-0.2,0.1-0.4,0.2-0.6c0.3-0.5,0.1-0.8-0.4-1.1c-1.7-1-2.6-2.5-2.5-4.5c0-0.8,0.4-1.7,0.7-2.5
		c0.2-0.4,0.5-0.8,0.8-1.3c-0.4-0.2-0.8-0.4-1.2-0.6c-2.8-1.5-4.5-4.3-4.1-7.3c0.4-3.2,2.1-5.4,5.2-6.5c0.6-0.2,0.9-0.5,1.1-1.2
		c0.5-2.7,2.7-4.4,5.5-4.1c0.5,0.1,0.7-0.1,0.9-0.5c1-2.3,3-3.5,5.2-3.2c2.3,0.3,4,1.9,4.4,4.4c0,0.3,0.1,0.5,0.2,0.9
		c2.8-0.8,5.3-0.4,6.7,2.3c1.4,2.6,0.4,4.7-1.7,6.6c1.3,1.2,2.3,2.5,2.2,4.4c-3.4-0.5-5.3,1.8-7.2,4c-0.8,0.9-1.4,2.1-2.2,3.1
		c-0.5-1.3-1-2.6-1.4-3.9c-0.1-0.4,0.1-0.9,0.2-1.3c0.8-3.1,2.4-5.8,4.7-8c0.1-0.1,0.3-0.2,0.5-0.4c-0.5-0.7-1-1.3-1.6-2
		c-2.4,2.1-4.1,4.7-5.3,7.6c-1.7-3.3-3.4-6.6-5.1-9.9c-0.8,0.5-1.5,0.9-2.1,1.4c1.3,2.5,2.7,5.1,4,7.6c-2.7-0.7-5.3-0.9-8.1-0.7
		c0.1,0.8,0.2,1.6,0.2,2.3c1.8,0.2,3.5,0.3,5.1,0.5c0.7,0.1,1.5,0.4,2.1,0.6c1.4,0.5,2.5,1.4,2.9,2.9c0.5,1.8,1.2,3.5,1.9,5.3
		C77.4,79.3,77.4,79.3,77.3,79.4z"/>
	<path class="st2" d="M65.1,91.7c-0.7,0.3-1.3,0.5-2.1,0.8c-1-2.9-2.1-5.8-3.1-8.7c-0.6,0-1.2,0-1.8-0.2c-3.1-0.6-4.8-3.6-3.7-6.5
		c0.3-0.8,0.3-1.2-0.5-1.6c-2.5-1.6-3-4.5-1.4-7c0.2-0.3,0.4-0.6,0.7-1.1c-0.4-0.2-0.8-0.4-1.2-0.6c-2.9-1.6-4.3-4-4.1-7.2
		c0.2-3,2.3-5.6,5.2-6.5c0.6-0.2,0.9-0.5,1.1-1.2c0.5-2.7,2.7-4.4,5.5-4.1c0.5,0.1,0.7-0.1,0.9-0.5c1-2.3,3-3.5,5.2-3.2
		c2.3,0.3,4,1.9,4.4,4.4c0,0.3,0.1,0.5,0.2,0.9c1.2-0.2,2.4-0.7,3.7-0.1c-0.7,0.4-1.3,0.6-1.9,1.1c-0.7,0.5-1.3,1.2-1.9,1.8
		c-0.3,0.3-0.5,0.5-1,0.6c-3,0.5-5.1,2.1-6.2,5c-0.1,0.3-0.4,0.6-0.7,0.8c-6.9,3.2-7.9,12.2-2,16.9c0.4,0.3,0.4,0.5,0.3,1
		c-0.9,2.9-0.3,5.5,1.8,7.7c0.2,0.2,0.4,0.6,0.3,0.8c-0.4,2.5,0.3,4.6,2,6.5C65,91.5,65,91.5,65.1,91.7z"/>
	<path class="st2" d="M97.8,81.4c1.4-0.2,2.8-0.3,4-0.7c0.8-0.2,1.6-0.7,2.2-1.2c1.4-1.2,1.3-3.1-0.2-4.2c-1.1-0.8-1-1.6-0.7-2.8
		c0.4,0.2,0.8,0.4,1.2,0.7c3.5,2.8,5.4,6.5,5.6,11c0.1,2.8,0,5.7-0.3,8.5c-0.1,1.3-0.8,2.5-1.2,3.7c-0.1,0.4-0.4,0.5-0.8,0.4
		c-3-0.5-6-0.9-8.9-1.4c-0.2,0-0.5-0.4-0.5-0.6c-0.2-1-0.4-2.1-0.4-3.1C97.5,88.3,97.4,84.8,97.8,81.4z"/>
	<path class="st2" d="M95.5,95c-2.4-0.4-4.7-0.7-6.9-1.1c-0.2,0-0.4-0.3-0.4-0.5c-0.2-0.8-0.4-1.5-0.4-2.3c-0.1-3.9-0.6-7.8,1-11.5
		c1.1-2.6,2.7-4.7,4.9-6.4c0.3-0.2,0.6-0.4,1-0.6c0.1,0.6,0.2,1.1,0.2,1.6c0,0.2-0.2,0.4-0.3,0.6c-0.1,0.1-0.2,0.1-0.3,0.2
		c-2.1,1.4-2.2,3.8,0,5c1.1,0.6,1.1,1.2,1.1,2.3C94.9,86.5,94.9,90.7,95.5,95z"/>
	<path class="st2" d="M110.8,97.4c2.2-5.7,2.2-11.5,0.8-17.3c-0.6-2.5-2-4.7-3.7-6.7c0.9-1,2.3-1.1,3.6-0.2c2.5,1.9,4.4,4.4,5.2,7.4
		c1.1,3.8,1.1,7.7-0.1,11.5c-0.6,2-1.7,3.7-3,5.2c-0.2,0.2-0.6,0.4-0.9,0.4C112,97.6,111.4,97.5,110.8,97.4z"/>
	<path class="st2" d="M89.6,73.4c-0.6,0.9-1.3,1.7-1.9,2.6c-1.7,2.8-2.7,5.9-2.6,9.2c0,2.7,0.1,5.5,0.2,8.3
		c-1.2-0.2-2.5-0.4-3.8-0.6c-0.2,0-0.4-0.3-0.5-0.5c-0.3-1.1-0.7-2.2-0.8-3.4c-0.4-4.5-0.2-8.9,2.8-12.7c0.9-1.2,2-2.2,3.2-3.2
		C87.3,72.2,88.7,72.4,89.6,73.4z"/>
	<path class="st2" d="M102.5,77.4c-1.2,1.8-6.6,1.7-7.6,0c0.6-0.3,1.1-0.6,1.7-0.8c0.6-0.2,0.7-0.4,0.7-1c-0.4-3.7-0.7-7.3-1-11
		c-0.1-1.5,0.3-2.5,1.4-3c1.9-0.7,3.6,0.6,3.5,2.6c-0.3,3.6-0.7,7.3-1,10.9c-0.1,1.2-0.1,1.1,0.9,1.6
		C101.6,76.8,102.1,77.1,102.5,77.4z"/>
	<path class="st2" d="M55.4,103.6c0,0.8,0,1.6,0,2.4c-0.2,0-0.4,0.1-0.5,0.1c-2.6,0-5.3,0-7.9,0c-0.9,0-1.5-0.5-1.5-1.2
		c0-0.8,0.6-1.3,1.5-1.3c2.6,0,5.2,0,7.8,0C54.9,103.6,55.1,103.6,55.4,103.6z"/>
	<path class="st2" d="M56.1,99.9c0,0.9-0.3,1.2-1.2,1.2c-1.5-0.1-3,0-4.5,0c-0.4,0-1-0.3-1.2-0.6c-0.2-0.4-0.1-1,0.1-1.4
		c0.2-0.5,0.8-0.4,1.3-0.3C52.5,99.1,54.3,99.5,56.1,99.9z"/>
	<path class="st2" d="M56.4,109.6c-2.1,0.5-4,0.9-5.9,1.3c-0.7,0.1-1.2-0.3-1.3-0.9c-0.1-0.9,0.2-1.5,1-1.5c1.8,0,3.6,0,5.3,0
		C56.3,108.5,55.9,109.3,56.4,109.6z"/>
</g>
</svg>
