<?xml version="1.0" encoding="utf-8"?>
<!-- Generator: Adobe Illustrator 23.0.3, SVG Export Plug-In . SVG Version: 6.00 Build 0)  -->
<svg version="1.1" id="Layer_1" xmlns="http://www.w3.org/2000/svg" xmlns:xlink="http://www.w3.org/1999/xlink" x="0px" y="0px"
	 width="489px" height="160px" viewBox="0 0 489 160" style="enable-background:new 0 0 489 160;" xml:space="preserve">
<style type="text/css">
	.st0{fill:#FFFFFF;}
	.st1{fill:#456E2D;}
	.st2{fill:#4D4D4D;}
	.st3{fill:#FF4900;}
</style>
<rect class="st0" width="489" height="160"/>
<g>
	<g>
		<path d="M146.6,68.9c-0.2,0-0.4,0-0.6-0.1s-0.5-0.1-0.7-0.1l0.2-2.3c0.2,0,0.3,0.1,0.5,0.1c0.5,0,0.8-0.2,1.1-0.6s0.4-0.9,0.6-1.6
			s0.2-1.6,0.2-2.6l0.2-4.8h9.1v11.9h-2.7V58.4L155,59h-5.3l0.6-0.7l-0.1,3.1c0,1.2-0.1,2.2-0.2,3.1c-0.1,0.9-0.3,1.7-0.6,2.3
			c-0.3,0.6-0.6,1.1-1.1,1.4C147.9,68.7,147.3,68.9,146.6,68.9z"/>
		<path d="M162.4,66.5h6.5v2.2h-9.2V56.8h9V59h-6.3V66.5z M162.2,61.6h5.7v2.1h-5.7V61.6z"/>
		<path d="M176.3,68.9c-0.9,0-1.8-0.2-2.6-0.5c-0.8-0.3-1.5-0.7-2-1.3c-0.6-0.6-1-1.2-1.4-2c-0.3-0.7-0.5-1.6-0.5-2.5
			c0-0.9,0.2-1.7,0.5-2.5c0.3-0.7,0.8-1.4,1.4-2c0.6-0.6,1.3-1,2-1.3c0.8-0.3,1.6-0.5,2.6-0.5c1,0,2,0.2,2.8,0.5
			c0.8,0.4,1.5,0.9,2.1,1.6l-1.8,1.6c-0.4-0.5-0.9-0.8-1.4-1c-0.5-0.2-1-0.3-1.6-0.3c-0.6,0-1.1,0.1-1.5,0.3
			c-0.5,0.2-0.9,0.4-1.2,0.8s-0.6,0.7-0.8,1.2s-0.3,1-0.3,1.5c0,0.6,0.1,1.1,0.3,1.5c0.2,0.5,0.5,0.9,0.8,1.2s0.7,0.6,1.2,0.8
			c0.5,0.2,1,0.3,1.5,0.3c0.6,0,1.1-0.1,1.6-0.3c0.5-0.2,1-0.6,1.4-1.1l1.8,1.6c-0.6,0.7-1.3,1.2-2.1,1.6S177.3,68.9,176.3,68.9z"/>
		<path d="M185.3,68.7h-2.8V56.8h2.8V68.7z M191,63.8h-5.8v-2.3h5.8V63.8z M190.8,56.8h2.8v11.9h-2.8V56.8z"/>
		<path d="M194.7,68.7l5.3-11.9h2.7l5.3,11.9h-2.9l-4.4-10.5h1.1l-4.4,10.5H194.7z M197.4,66.1l0.7-2.1h6.1l0.7,2.1H197.4z"/>
		<path d="M213.6,68.7V56.8h2.7v7.8l5.7-7.8h2.6v11.9h-2.7v-7.7l-5.7,7.7H213.6z"/>
		<path d="M237.1,68.9c-0.9,0-1.8-0.2-2.6-0.5c-0.8-0.3-1.5-0.7-2-1.3c-0.6-0.6-1-1.2-1.4-2s-0.5-1.6-0.5-2.5c0-0.9,0.2-1.7,0.5-2.5
			s0.8-1.4,1.4-2c0.6-0.6,1.3-1,2-1.3c0.8-0.3,1.6-0.5,2.6-0.5c1,0,2,0.2,2.8,0.5c0.8,0.4,1.5,0.9,2.1,1.6l-1.8,1.6
			c-0.4-0.5-0.9-0.8-1.4-1c-0.5-0.2-1-0.3-1.6-0.3c-0.6,0-1.1,0.1-1.5,0.3c-0.5,0.2-0.9,0.4-1.2,0.8c-0.3,0.3-0.6,0.7-0.8,1.2
			c-0.2,0.5-0.3,1-0.3,1.5c0,0.6,0.1,1.1,0.3,1.5c0.2,0.5,0.5,0.9,0.8,1.2c0.3,0.3,0.7,0.6,1.2,0.8c0.5,0.2,1,0.3,1.5,0.3
			c0.6,0,1.1-0.1,1.6-0.3c0.5-0.2,1-0.6,1.4-1.1l1.8,1.6c-0.6,0.7-1.3,1.2-2.1,1.6S238.2,68.9,237.1,68.9z"/>
		<path d="M243.4,68.7V56.8h2.7v7.8l5.7-7.8h2.6v11.9h-2.7v-7.7l-5.7,7.7H243.4z"/>
		<path d="M257,68.7V56.8h8.4l0,2.2h-6.3l0.6-0.6l0,10.3H257z"/>
		<path d="M270.7,66.8l-5.4-10h2.9l3.9,8L270.7,66.8z M267,66.4c0.7,0.2,1.2,0.2,1.7,0.2c0.4-0.1,0.8-0.4,1.2-0.9l0.6-0.9l0.3-0.3
			l3.9-7.7h2.7l-5.1,9.4c-0.5,0.9-1,1.5-1.6,2c-0.6,0.5-1.3,0.7-2,0.8c-0.7,0.1-1.5-0.1-2.3-0.4L267,66.4z"/>
		<path d="M278.2,68.7V56.8h5.2c1.1,0,2,0.2,2.8,0.5s1.4,0.8,1.8,1.5c0.4,0.6,0.6,1.4,0.6,2.3c0,0.9-0.2,1.6-0.6,2.3
			c-0.4,0.6-1,1.1-1.8,1.5s-1.7,0.5-2.8,0.5h-3.6l1.2-1.2v4.5H278.2z M281,64.5l-1.2-1.3h3.5c0.9,0,1.5-0.2,1.9-0.5
			c0.4-0.4,0.6-0.9,0.6-1.5c0-0.7-0.2-1.2-0.6-1.5c-0.4-0.4-1.1-0.5-1.9-0.5h-3.5l1.2-1.3V64.5z"/>
		<path d="M292.7,68.7H290V56.8h2.8V68.7z M298.3,63.8h-5.8v-2.3h5.8V63.8z M298.1,56.8h2.8v11.9h-2.8V56.8z"/>
		<path d="M302.1,68.7l5.3-11.9h2.7l5.3,11.9h-2.9l-4.4-10.5h1.1l-4.4,10.5H302.1z M304.7,66.1l0.7-2.1h6.1l0.7,2.1H304.7z"/>
		<path d="M319.7,71.1l0-4.7h13.5v4.7h-2.5v-2.5h-8.4v2.5H319.7z M328.9,67.4V59h-4.1l-0.1,1.7c0,0.7-0.1,1.4-0.1,2.1
			c-0.1,0.7-0.2,1.3-0.3,1.8c-0.1,0.5-0.3,1-0.5,1.4s-0.4,0.6-0.7,0.8l-2.9-0.4c0.4,0,0.7-0.1,1-0.4s0.5-0.7,0.6-1.3
			c0.2-0.5,0.3-1.2,0.3-1.9c0.1-0.7,0.1-1.5,0.2-2.4l0.1-3.7h9.1v10.7H328.9z"/>
		<path d="M340.4,68.9c-0.9,0-1.8-0.2-2.6-0.5s-1.5-0.7-2.1-1.3s-1-1.2-1.4-2c-0.3-0.7-0.5-1.6-0.5-2.4s0.2-1.7,0.5-2.4
			c0.3-0.7,0.8-1.4,1.4-2c0.6-0.6,1.3-1,2.1-1.3c0.8-0.3,1.7-0.5,2.6-0.5c0.9,0,1.8,0.2,2.6,0.5c0.8,0.3,1.5,0.7,2.1,1.3
			c0.6,0.6,1,1.2,1.4,1.9s0.5,1.6,0.5,2.5c0,0.9-0.2,1.7-0.5,2.5s-0.8,1.4-1.4,2c-0.6,0.5-1.3,1-2.1,1.3
			C342.2,68.7,341.3,68.9,340.4,68.9z M340.3,66.5c0.5,0,1-0.1,1.5-0.3c0.4-0.2,0.8-0.4,1.2-0.8c0.3-0.3,0.6-0.7,0.8-1.2
			c0.2-0.5,0.3-1,0.3-1.5c0-0.6-0.1-1.1-0.3-1.5c-0.2-0.5-0.4-0.9-0.8-1.2s-0.7-0.6-1.2-0.8c-0.5-0.2-0.9-0.3-1.5-0.3
			c-0.5,0-1,0.1-1.5,0.3c-0.4,0.2-0.8,0.4-1.2,0.8s-0.6,0.7-0.8,1.2c-0.2,0.5-0.3,1-0.3,1.5c0,0.6,0.1,1.1,0.3,1.5
			c0.2,0.5,0.4,0.9,0.8,1.2c0.3,0.3,0.7,0.6,1.2,0.8C339.3,66.4,339.8,66.5,340.3,66.5z"/>
		<path d="M354.2,68.9c-0.9,0-1.8-0.2-2.6-0.5c-0.8-0.3-1.5-0.7-2-1.3c-0.6-0.6-1-1.2-1.4-2s-0.5-1.6-0.5-2.5c0-0.9,0.2-1.7,0.5-2.5
			s0.8-1.4,1.4-2c0.6-0.6,1.3-1,2-1.3c0.8-0.3,1.6-0.5,2.6-0.5c1,0,2,0.2,2.8,0.5c0.8,0.4,1.5,0.9,2.1,1.6l-1.8,1.6
			c-0.4-0.5-0.9-0.8-1.4-1c-0.5-0.2-1-0.3-1.6-0.3c-0.6,0-1.1,0.1-1.5,0.3c-0.5,0.2-0.9,0.4-1.2,0.8c-0.3,0.3-0.6,0.7-0.8,1.2
			c-0.2,0.5-0.3,1-0.3,1.5c0,0.6,0.1,1.1,0.3,1.5c0.2,0.5,0.5,0.9,0.8,1.2c0.3,0.3,0.7,0.6,1.2,0.8c0.5,0.2,1,0.3,1.5,0.3
			c0.6,0,1.1-0.1,1.6-0.3c0.5-0.2,1-0.6,1.4-1.1l1.8,1.6c-0.6,0.7-1.3,1.2-2.1,1.6S355.2,68.9,354.2,68.9z"/>
		<path d="M362.9,68.7V58.4l0.6,0.6h-4.4v-2.2h10.3V59H365l0.6-0.6v10.3H362.9z"/>
		<path d="M368.8,68.7l5.3-11.9h2.7l5.3,11.9h-2.9l-4.4-10.5h1.1l-4.4,10.5H368.8z M371.5,66.1l0.7-2.1h6.1l0.7,2.1H371.5z"/>
		<path d="M383.3,68.7V56.8h5.5c1.4,0,2.5,0.3,3.2,0.8c0.8,0.5,1.2,1.3,1.2,2.3c0,1-0.4,1.7-1.1,2.3c-0.7,0.5-1.7,0.8-2.9,0.8
			l0.3-0.7c1.3,0,2.4,0.3,3.1,0.8c0.7,0.5,1.1,1.3,1.1,2.3c0,1-0.4,1.9-1.2,2.5c-0.8,0.6-1.9,0.9-3.4,0.9H383.3z M386.1,61.7h2.6
			c0.6,0,1.1-0.1,1.4-0.4c0.3-0.2,0.5-0.6,0.5-1.1s-0.2-0.8-0.5-1.1c-0.3-0.2-0.8-0.4-1.4-0.4h-2.6V61.7z M386.1,66.6h3
			c0.6,0,1.1-0.1,1.4-0.4c0.3-0.2,0.5-0.6,0.5-1.2c0-0.5-0.2-0.9-0.5-1.1c-0.3-0.2-0.8-0.4-1.4-0.4h-3V66.6z"/>
		<path d="M395.5,68.7V56.8h2.7v11.9H395.5z M397.5,63.9v-2.3h4.1v2.3H397.5z M402,63l-2.5-0.3l3.9-6h2.9L402,63z M403.3,68.7
			l-3.7-5.7l2.2-1.3l4.6,7.1H403.3z"/>
		<path d="M405.7,68.7l5.3-11.9h2.7l5.3,11.9h-2.9l-4.4-10.5h1.1l-4.4,10.5H405.7z M408.3,66.1l0.7-2.1h6.1l0.7,2.1H408.3z"/>
		<path class="st2" d="M146.4,85.7v-8.4h7.1v8.4h-0.9v-7.9l0.2,0.2h-5.8l0.2-0.2v7.9H146.4z"/>
		<path class="st2" d="M159.7,85.7c-0.6,0-1.2-0.1-1.8-0.3s-1-0.5-1.4-0.9c-0.4-0.4-0.7-0.8-0.9-1.4c-0.2-0.5-0.3-1.1-0.3-1.7
			s0.1-1.2,0.3-1.7c0.2-0.5,0.5-1,0.9-1.4s0.9-0.7,1.4-0.9s1.1-0.3,1.8-0.3c0.6,0,1.2,0.1,1.8,0.3c0.5,0.2,1,0.5,1.4,0.9
			s0.7,0.8,0.9,1.4c0.2,0.5,0.3,1.1,0.3,1.7s-0.1,1.2-0.3,1.7c-0.2,0.5-0.5,1-0.9,1.4c-0.4,0.4-0.9,0.7-1.4,0.9
			C160.9,85.6,160.4,85.7,159.7,85.7z M159.7,85c0.5,0,1-0.1,1.4-0.3c0.4-0.2,0.8-0.4,1.1-0.7c0.3-0.3,0.6-0.7,0.7-1.1
			c0.2-0.4,0.3-0.9,0.3-1.4s-0.1-1-0.3-1.4c-0.2-0.4-0.4-0.8-0.7-1.1c-0.3-0.3-0.7-0.6-1.1-0.7c-0.4-0.2-0.9-0.3-1.4-0.3
			s-1,0.1-1.4,0.3c-0.4,0.2-0.8,0.4-1.1,0.7c-0.3,0.3-0.6,0.7-0.7,1.1c-0.2,0.4-0.3,0.9-0.3,1.4c0,0.5,0.1,1,0.3,1.4
			c0.2,0.4,0.4,0.8,0.7,1.1c0.3,0.3,0.7,0.6,1.1,0.7C158.7,84.9,159.2,85,159.7,85z"/>
		<path class="st2" d="M165.1,85.7c-0.1,0-0.2,0-0.3,0c-0.1,0-0.2,0-0.3-0.1l0.1-0.8c0.1,0,0.3,0,0.4,0c0.4,0,0.6-0.1,0.9-0.4
			c0.2-0.3,0.4-0.7,0.5-1.3c0.1-0.6,0.2-1.4,0.2-2.3l0.1-3.6h5.7v8.4h-0.9v-7.9l0.2,0.2h-4.5l0.2-0.3l-0.1,3.1
			c0,0.8-0.1,1.6-0.2,2.2c-0.1,0.6-0.2,1.1-0.4,1.5c-0.2,0.4-0.4,0.7-0.6,0.9C165.8,85.6,165.5,85.7,165.1,85.7z"/>
		<path class="st2" d="M177.3,84.2l-3.6-6.9h0.9l3.2,6.2L177.3,84.2z M174.7,84.8c0.4,0.2,0.8,0.2,1.2,0.1c0.4-0.1,0.7-0.4,1-0.8
			l0.4-0.6l0.1-0.1l3.2-6.1h0.9l-3.8,7c-0.3,0.5-0.6,0.9-0.9,1.1c-0.3,0.2-0.7,0.4-1.1,0.4c-0.4,0-0.8-0.1-1.2-0.2L174.7,84.8z"/>
		<path class="st2" d="M187.9,82.1c-0.5,0.2-1,0.4-1.4,0.5c-0.5,0.1-0.9,0.2-1.4,0.2c-1,0-1.8-0.2-2.3-0.7c-0.5-0.5-0.8-1.1-0.8-2
			v-2.8h0.9v2.7c0,0.6,0.2,1.2,0.6,1.5c0.4,0.4,1,0.5,1.7,0.5c0.4,0,0.9-0.1,1.3-0.2s0.9-0.3,1.4-0.5V82.1z M187.8,85.7v-8.4h0.9
			v8.4H187.8z"/>
		<path class="st2" d="M189.9,85.7l3.8-8.4h0.9l3.8,8.4h-0.9l-3.5-7.9h0.4l-3.5,7.9H189.9z M191.4,83.4l0.3-0.7h4.9l0.3,0.7H191.4z"
			/>
		<path class="st2" d="M199.8,85.7v-8.4h3.5c0.9,0,1.6,0.2,2.1,0.5c0.5,0.4,0.8,0.9,0.8,1.6c0,0.7-0.2,1.2-0.7,1.6
			c-0.5,0.4-1.1,0.5-1.9,0.5l0.2-0.3c0.9,0,1.6,0.2,2.1,0.6c0.5,0.4,0.7,0.9,0.7,1.6c0,0.7-0.3,1.3-0.8,1.7
			c-0.5,0.4-1.3,0.6-2.3,0.6H199.8z M200.7,81.1h2.6c0.6,0,1.1-0.1,1.5-0.4c0.3-0.3,0.5-0.6,0.5-1.2c0-0.5-0.2-0.9-0.5-1.2
			s-0.8-0.4-1.5-0.4h-2.6V81.1z M200.7,85h2.8c0.7,0,1.3-0.1,1.6-0.4c0.4-0.3,0.6-0.7,0.6-1.2c0-0.5-0.2-0.9-0.6-1.2
			c-0.4-0.3-0.9-0.4-1.6-0.4h-2.8V85z"/>
		<path class="st2" d="M207.2,85.7l3.8-8.4h0.9l3.8,8.4h-0.9l-3.5-7.9h0.4l-3.5,7.9H207.2z M208.8,83.4l0.3-0.7h4.9l0.3,0.7H208.8z"
			/>
		<path class="st2" d="M222,84.9l-0.2,0.2v-7.9h0.9v7.9l-0.2-0.2h4.3l-0.2,0.2v-7.9h0.9v8.4h-10.3v-8.4h0.9v7.9l-0.2-0.2H222z"/>
		<path class="st2" d="M232.8,85.7v-8.4h7.1v8.4H239v-7.9l0.2,0.2h-5.8l0.2-0.2v7.9H232.8z"/>
		<path class="st2" d="M242.4,85.7v-8.4h3.1c0.7,0,1.3,0.1,1.8,0.3c0.5,0.2,0.9,0.6,1.2,1c0.3,0.4,0.4,0.9,0.4,1.6
			c0,0.6-0.1,1.1-0.4,1.5c-0.3,0.4-0.7,0.8-1.2,1c-0.5,0.2-1.1,0.3-1.8,0.3h-2.7l0.4-0.4v3.1H242.4z M243.3,82.7l-0.4-0.4h2.6
			c0.8,0,1.5-0.2,1.9-0.5c0.4-0.4,0.7-0.9,0.7-1.5c0-0.7-0.2-1.2-0.7-1.6c-0.4-0.4-1.1-0.6-1.9-0.6h-2.6l0.4-0.4V82.7z"/>
		<path class="st2" d="M254.3,85.7c-0.6,0-1.2-0.1-1.8-0.3s-1-0.5-1.4-0.9c-0.4-0.4-0.7-0.8-0.9-1.4c-0.2-0.5-0.3-1.1-0.3-1.7
			s0.1-1.2,0.3-1.7c0.2-0.5,0.5-1,0.9-1.4c0.4-0.4,0.9-0.7,1.4-0.9s1.1-0.3,1.8-0.3c0.6,0,1.2,0.1,1.8,0.3c0.5,0.2,1,0.5,1.4,0.9
			s0.7,0.8,0.9,1.4c0.2,0.5,0.3,1.1,0.3,1.7s-0.1,1.2-0.3,1.7c-0.2,0.5-0.5,1-0.9,1.4c-0.4,0.4-0.9,0.7-1.4,0.9
			C255.5,85.6,254.9,85.7,254.3,85.7z M254.3,85c0.5,0,1-0.1,1.4-0.3c0.4-0.2,0.8-0.4,1.1-0.7c0.3-0.3,0.6-0.7,0.7-1.1
			c0.2-0.4,0.3-0.9,0.3-1.4s-0.1-1-0.3-1.4c-0.2-0.4-0.4-0.8-0.7-1.1c-0.3-0.3-0.7-0.6-1.1-0.7s-0.9-0.3-1.4-0.3s-1,0.1-1.4,0.3
			c-0.4,0.2-0.8,0.4-1.1,0.7c-0.3,0.3-0.6,0.7-0.7,1.1s-0.3,0.9-0.3,1.4c0,0.5,0.1,1,0.3,1.4c0.2,0.4,0.4,0.8,0.7,1.1
			c0.3,0.3,0.7,0.6,1.1,0.7C253.3,84.9,253.8,85,254.3,85z"/>
		<path class="st2" d="M259,87.6l0-2.7h9v2.7h-0.8v-1.9h-7.3l0,1.9H259z M265.8,85.3V78h-4l-0.1,2c0,0.6-0.1,1.2-0.1,1.8
			c-0.1,0.6-0.1,1.1-0.2,1.6c-0.1,0.5-0.3,0.8-0.4,1.1s-0.4,0.5-0.7,0.5l-1-0.2c0.3,0,0.6-0.1,0.8-0.3s0.4-0.6,0.5-1
			c0.1-0.4,0.2-1,0.3-1.6c0.1-0.6,0.1-1.2,0.1-1.9l0.1-2.7h5.7v8H265.8z"/>
		<path class="st2" d="M272,84.2l-3.6-6.9h0.9l3.2,6.2L272,84.2z M269.3,84.8c0.4,0.2,0.8,0.2,1.2,0.1c0.4-0.1,0.7-0.4,1-0.8
			l0.4-0.6l0.1-0.1l3.2-6.1h0.9l-3.8,7c-0.3,0.5-0.6,0.9-0.9,1.1c-0.3,0.2-0.7,0.4-1.1,0.4c-0.4,0-0.8-0.1-1.2-0.2L269.3,84.8z"/>
		<path class="st2" d="M277.2,85.7v-8.4h0.9v8.4H277.2z M277.8,81.8V81h2.6v0.8H277.8z M280.5,81.6l-0.8-0.1l3.1-4.2h1L280.5,81.6z
			 M282.9,85.7l-3.2-4.2l0.7-0.4l3.5,4.6H282.9z"/>
		<path class="st2" d="M286.6,85.7v-7.9l0.2,0.2h-3.2v-0.8h6.8V78h-3.2l0.2-0.2v7.9H286.6z"/>
		<path class="st2" d="M291.7,85.7v-8.4h0.9v7l5.4-7h0.8v8.4h-0.9v-6.9l-5.4,6.9H291.7z"/>
		<path class="st2" d="M302.9,85.7v-7.9l0.2,0.2H300v-0.8h6.8V78h-3.2l0.2-0.2v7.9H302.9z"/>
		<path class="st2" d="M308.9,84.9h5.1v0.8H308v-8.4h5.8V78h-4.9V84.9z M308.8,81h4.4v0.8h-4.4V81z"/>
		<path class="st2" d="M322.2,85.7c-0.6,0-1.2-0.1-1.8-0.3s-1-0.5-1.4-0.9c-0.4-0.4-0.7-0.8-0.9-1.4c-0.2-0.5-0.3-1.1-0.3-1.7
			s0.1-1.2,0.3-1.7c0.2-0.5,0.5-1,0.9-1.4c0.4-0.4,0.9-0.7,1.4-0.9s1.1-0.3,1.8-0.3c0.6,0,1.2,0.1,1.7,0.3c0.5,0.2,1,0.5,1.4,0.9
			l-0.6,0.6c-0.3-0.4-0.7-0.6-1.1-0.8c-0.4-0.2-0.9-0.2-1.3-0.2c-0.5,0-1,0.1-1.4,0.3c-0.4,0.2-0.8,0.4-1.1,0.7
			c-0.3,0.3-0.6,0.7-0.8,1.1c-0.2,0.4-0.3,0.9-0.3,1.4s0.1,1,0.3,1.4c0.2,0.4,0.4,0.8,0.8,1.1s0.7,0.6,1.1,0.7
			c0.4,0.2,0.9,0.3,1.4,0.3c0.5,0,0.9-0.1,1.3-0.2s0.8-0.4,1.1-0.8l0.6,0.6c-0.4,0.4-0.8,0.7-1.4,0.9
			C323.3,85.6,322.8,85.7,322.2,85.7z"/>
		<path class="st2" d="M326.8,85.7v-8.4h0.9v7l5.4-7h0.8v8.4H333v-6.9l-5.4,6.9H326.8z"/>
		<path class="st2" d="M340.1,85.7h-0.9v-8.4h0.9V85.7z M345.4,81.8H340V81h5.4V81.8z M345.3,77.3h0.9v8.4h-0.9V77.3z"/>
		<path class="st2" d="M347.5,85.7l3.8-8.4h0.9l3.8,8.4h-0.9l-3.5-7.9h0.4l-3.5,7.9H347.5z M349,83.4l0.3-0.7h4.9l0.3,0.7H349z"/>
		<path class="st2" d="M360.2,85.7v-8.4h0.9v7l5.4-7h0.8v8.4h-0.9v-6.9l-5.4,6.9H360.2z"/>
		<path class="st2" d="M368.8,84.7l0.3-0.6c0.4,0.3,0.8,0.6,1.2,0.7c0.5,0.2,0.9,0.2,1.4,0.2c0.5,0,0.9-0.1,1.3-0.2
			c0.4-0.1,0.7-0.3,0.9-0.6c0.2-0.3,0.4-0.6,0.4-1c0-0.5-0.2-0.9-0.6-1.1c-0.4-0.3-0.9-0.4-1.6-0.4h-1.8V81h1.8
			c0.6,0,1.1-0.1,1.4-0.4s0.5-0.6,0.5-1c0-0.3-0.1-0.6-0.3-0.8c-0.2-0.2-0.4-0.4-0.8-0.5s-0.7-0.2-1.1-0.2c-0.4,0-0.8,0-1.2,0.2
			s-0.8,0.3-1.2,0.5l-0.3-0.7c0.5-0.3,1-0.5,1.5-0.6c0.5-0.1,1.1-0.2,1.6-0.1s1,0.2,1.4,0.3c0.4,0.2,0.7,0.4,1,0.8
			c0.2,0.3,0.4,0.7,0.4,1.1c0,0.4-0.1,0.8-0.3,1.1c-0.2,0.3-0.5,0.5-0.9,0.7c-0.4,0.2-0.8,0.2-1.3,0.2l0-0.3c0.6,0,1,0.1,1.5,0.3
			c0.4,0.2,0.7,0.4,1,0.8c0.2,0.3,0.3,0.7,0.3,1.1c0,0.4-0.1,0.8-0.3,1.1c-0.2,0.3-0.5,0.6-0.8,0.8c-0.4,0.2-0.8,0.4-1.2,0.5
			c-0.4,0.1-0.9,0.1-1.4,0.1c-0.5,0-1-0.1-1.4-0.3S369.2,85,368.8,84.7z"/>
		<path class="st2" d="M377.1,85.7v-8.4h6.1V78H378v2.7h2.7c1,0,1.7,0.2,2.3,0.6c0.5,0.4,0.8,1,0.8,1.8c0,0.8-0.3,1.4-0.8,1.9
			c-0.6,0.4-1.4,0.6-2.4,0.6H377.1z M378,85h2.5c0.8,0,1.4-0.2,1.8-0.5c0.4-0.3,0.6-0.7,0.6-1.3c0-1.1-0.8-1.7-2.4-1.7H378V85z"/>
		<path class="st2" d="M385.6,85.7v-8.4h3.1c0.7,0,1.3,0.1,1.8,0.3c0.5,0.2,0.9,0.6,1.2,1c0.3,0.4,0.4,0.9,0.4,1.6
			c0,0.6-0.1,1.1-0.4,1.5c-0.3,0.4-0.7,0.8-1.2,1c-0.5,0.2-1.1,0.3-1.8,0.3h-2.7l0.4-0.4v3.1H385.6z M386.4,82.7l-0.4-0.4h2.6
			c0.8,0,1.5-0.2,1.9-0.5c0.4-0.4,0.7-0.9,0.7-1.5c0-0.7-0.2-1.2-0.7-1.6c-0.4-0.4-1.1-0.6-1.9-0.6h-2.6l0.4-0.4V82.7z"/>
		<path class="st2" d="M392,85.7l3.8-8.4h0.9l3.8,8.4h-0.9l-3.5-7.9h0.4l-3.5,7.9H392z M393.5,83.4l0.3-0.7h4.9l0.3,0.7H393.5z"/>
		<path class="st2" d="M402.7,85.7h-0.9v-8.4h0.9V85.7z M408.1,81.8h-5.4V81h5.4V81.8z M408,77.3h0.9v8.4H408V77.3z"/>
		<path class="st2" d="M411.4,85.7v-8.4h0.9v7l5.4-7h0.8v8.4h-0.9v-6.9l-5.4,6.9H411.4z"/>
		<path class="st2" d="M426.1,85.7v-2.8l0.2,0.2h-2.7c-0.7,0-1.2-0.1-1.7-0.3c-0.5-0.2-0.8-0.6-1.1-1s-0.4-0.9-0.4-1.5
			c0-0.6,0.1-1.2,0.4-1.6c0.3-0.4,0.7-0.8,1.2-1c0.5-0.2,1.1-0.3,1.7-0.3h3.3v8.4H426.1z M420.4,85.7l2.1-3h0.9l-2,3H420.4z
			 M426.1,82.6v-4.8l0.2,0.3h-2.6c-0.8,0-1.4,0.2-1.8,0.6c-0.4,0.4-0.6,0.9-0.6,1.6c0,0.7,0.2,1.2,0.6,1.6c0.4,0.4,1,0.6,1.8,0.6
			h2.7L426.1,82.6z"/>
		<path class="st2" d="M150.1,102.7c-0.6,0-1.2-0.1-1.8-0.3s-1-0.5-1.4-0.9c-0.4-0.4-0.7-0.8-0.9-1.4c-0.2-0.5-0.3-1.1-0.3-1.7
			s0.1-1.2,0.3-1.7c0.2-0.5,0.5-1,0.9-1.4s0.9-0.7,1.4-0.9s1.1-0.3,1.8-0.3c0.6,0,1.2,0.1,1.8,0.3c0.5,0.2,1,0.5,1.4,0.9
			s0.7,0.8,0.9,1.4c0.2,0.5,0.3,1.1,0.3,1.7s-0.1,1.2-0.3,1.7c-0.2,0.5-0.5,1-0.9,1.4c-0.4,0.4-0.9,0.7-1.4,0.9
			C151.3,102.6,150.8,102.7,150.1,102.7z M150.1,102c0.5,0,1-0.1,1.4-0.3c0.4-0.2,0.8-0.4,1.1-0.7c0.3-0.3,0.6-0.7,0.7-1.1
			c0.2-0.4,0.3-0.9,0.3-1.4s-0.1-1-0.3-1.4c-0.2-0.4-0.4-0.8-0.7-1.1c-0.3-0.3-0.7-0.6-1.1-0.7c-0.4-0.2-0.9-0.3-1.4-0.3
			s-1,0.1-1.4,0.3c-0.4,0.2-0.8,0.4-1.1,0.7c-0.3,0.3-0.6,0.7-0.7,1.1c-0.2,0.4-0.3,0.9-0.3,1.4c0,0.5,0.1,1,0.3,1.4
			c0.2,0.4,0.4,0.8,0.7,1.1c0.3,0.3,0.7,0.6,1.1,0.7C149.1,101.9,149.6,102,150.1,102z"/>
		<path class="st2" d="M157.9,102.7v-7.9l0.2,0.2h-3.2v-0.8h6.8V95h-3.2l0.2-0.2v7.9H157.9z"/>
		<path class="st2" d="M167.5,102.7v-7.9l0.2,0.2h-3.2v-0.8h6.8V95h-3.2l0.2-0.2v7.9H167.5z"/>
		<path class="st2" d="M173.5,101.9h5.1v0.8h-5.9v-8.4h5.8V95h-4.9V101.9z M173.4,98h4.4v0.8h-4.4V98z"/>
		<path class="st2" d="M180.2,102.7v-8.4h6.1V95h-5.3v2.7h2.7c1,0,1.7,0.2,2.3,0.6c0.5,0.4,0.8,1,0.8,1.8c0,0.8-0.3,1.4-0.8,1.9
			c-0.6,0.4-1.4,0.6-2.4,0.6H180.2z M181.1,102h2.5c0.8,0,1.4-0.2,1.8-0.5s0.6-0.7,0.6-1.3c0-1.1-0.8-1.7-2.4-1.7h-2.5V102z"/>
		<path class="st2" d="M190.2,102.7l3.8-8.4h0.9l3.8,8.4h-0.9l-3.5-7.9h0.4l-3.5,7.9H190.2z M191.7,100.4l0.3-0.7h4.9l0.3,0.7H191.7
			z"/>
		<path class="st2" d="M198.8,104.6l0-2.7h9v2.7H207v-1.9h-7.3l0,1.9H198.8z M205.7,102.3V95h-4l-0.1,2c0,0.6-0.1,1.2-0.1,1.8
			c-0.1,0.6-0.1,1.1-0.2,1.6c-0.1,0.5-0.3,0.8-0.4,1.1c-0.2,0.3-0.4,0.5-0.7,0.5l-1-0.2c0.3,0,0.6-0.1,0.8-0.3
			c0.2-0.2,0.4-0.6,0.5-1c0.1-0.4,0.2-1,0.3-1.6c0.1-0.6,0.1-1.2,0.1-1.9l0.1-2.7h5.7v8H205.7z"/>
		<path class="st2" d="M209.3,102.7v-8.4h3.1c0.7,0,1.3,0.1,1.8,0.3c0.5,0.2,0.9,0.6,1.2,1c0.3,0.4,0.4,0.9,0.4,1.6
			c0,0.6-0.1,1.1-0.4,1.5c-0.3,0.4-0.7,0.8-1.2,1c-0.5,0.2-1.1,0.3-1.8,0.3h-2.7l0.4-0.4v3.1H209.3z M210.2,99.7l-0.4-0.4h2.6
			c0.8,0,1.5-0.2,1.9-0.5c0.4-0.4,0.7-0.9,0.7-1.5c0-0.7-0.2-1.2-0.7-1.6c-0.4-0.4-1.1-0.6-1.9-0.6h-2.6l0.4-0.4V99.7z"/>
		<path class="st2" d="M218.3,101.9h5.1v0.8h-5.9v-8.4h5.8V95h-4.9V101.9z M218.2,98h4.4v0.8h-4.4V98z"/>
		<path class="st2" d="M228.6,102.7c-0.6,0-1.2-0.1-1.8-0.3s-1-0.5-1.4-0.9c-0.4-0.4-0.7-0.8-0.9-1.4c-0.2-0.5-0.3-1.1-0.3-1.7
			s0.1-1.2,0.3-1.7c0.2-0.5,0.5-1,0.9-1.4c0.4-0.4,0.9-0.7,1.4-0.9s1.1-0.3,1.8-0.3c0.6,0,1.2,0.1,1.7,0.3c0.5,0.2,1,0.5,1.4,0.9
			l-0.6,0.6c-0.3-0.4-0.7-0.6-1.1-0.8c-0.4-0.2-0.9-0.2-1.3-0.2c-0.5,0-1,0.1-1.4,0.3c-0.4,0.2-0.8,0.4-1.1,0.7
			c-0.3,0.3-0.6,0.7-0.8,1.1c-0.2,0.4-0.3,0.9-0.3,1.4s0.1,1,0.3,1.4c0.2,0.4,0.4,0.8,0.8,1.1s0.7,0.6,1.1,0.7
			c0.4,0.2,0.9,0.3,1.4,0.3c0.5,0,0.9-0.1,1.3-0.2s0.8-0.4,1.1-0.8l0.6,0.6c-0.4,0.4-0.8,0.7-1.4,0.9
			C229.8,102.6,229.3,102.7,228.6,102.7z"/>
		<path class="st2" d="M235.5,98.8v-0.7h3.1v0.7H235.5z"/>
		<path class="st2" d="M247.2,102.7c-0.6,0-1.2-0.1-1.8-0.3s-1-0.5-1.4-0.9c-0.4-0.4-0.7-0.8-0.9-1.4c-0.2-0.5-0.3-1.1-0.3-1.7
			s0.1-1.2,0.3-1.7c0.2-0.5,0.5-1,0.9-1.4c0.4-0.4,0.9-0.7,1.4-0.9s1.1-0.3,1.8-0.3c0.6,0,1.2,0.1,1.7,0.3c0.5,0.2,1,0.5,1.4,0.9
			l-0.6,0.6c-0.3-0.4-0.7-0.6-1.1-0.8c-0.4-0.2-0.9-0.2-1.3-0.2c-0.5,0-1,0.1-1.4,0.3c-0.4,0.2-0.8,0.4-1.1,0.7
			c-0.3,0.3-0.6,0.7-0.8,1.1c-0.2,0.4-0.3,0.9-0.3,1.4s0.1,1,0.3,1.4c0.2,0.4,0.4,0.8,0.8,1.1s0.7,0.6,1.1,0.7
			c0.4,0.2,0.9,0.3,1.4,0.3c0.5,0,0.9-0.1,1.3-0.2s0.8-0.4,1.1-0.8l0.6,0.6c-0.4,0.4-0.8,0.7-1.4,0.9
			C248.3,102.6,247.8,102.7,247.2,102.7z"/>
		<path class="st2" d="M251.8,102.7v-8.4h0.9v7l5.4-7h0.8v8.4H258v-6.9l-5.4,6.9H251.8z"/>
		<path class="st2" d="M261.4,102.7v-8.4h5.3V95H262l0.2-0.2l0,7.9H261.4z"/>
		<path class="st2" d="M270.4,101.2l-3.6-6.9h0.9l3.2,6.2L270.4,101.2z M267.8,101.8c0.4,0.2,0.8,0.2,1.2,0.1c0.4-0.1,0.7-0.4,1-0.8
			l0.4-0.6l0.1-0.1l3.2-6.1h0.9l-3.8,7c-0.3,0.5-0.6,0.9-0.9,1.1c-0.3,0.2-0.7,0.4-1.1,0.4c-0.4,0-0.8-0.1-1.2-0.2L267.8,101.8z"/>
		<path class="st2" d="M275.6,102.7v-8.4h3.1c0.7,0,1.3,0.1,1.8,0.3c0.5,0.2,0.9,0.6,1.2,1c0.3,0.4,0.4,0.9,0.4,1.6
			c0,0.6-0.1,1.1-0.4,1.5c-0.3,0.4-0.7,0.8-1.2,1c-0.5,0.2-1.1,0.3-1.8,0.3h-2.7l0.4-0.4v3.1H275.6z M276.5,99.7l-0.4-0.4h2.6
			c0.8,0,1.5-0.2,1.9-0.5c0.4-0.4,0.7-0.9,0.7-1.5c0-0.7-0.2-1.2-0.7-1.6c-0.4-0.4-1.1-0.6-1.9-0.6h-2.6l0.4-0.4V99.7z"/>
		<path class="st2" d="M284.6,102.7h-0.9v-8.4h0.9V102.7z M289.9,98.8h-5.4V98h5.4V98.8z M289.8,94.3h0.9v8.4h-0.9V94.3z"/>
		<path class="st2" d="M296.9,102.7c-0.6,0-1.2-0.1-1.8-0.3s-1-0.5-1.4-0.9c-0.4-0.4-0.7-0.8-0.9-1.4c-0.2-0.5-0.3-1.1-0.3-1.7
			s0.1-1.2,0.3-1.7c0.2-0.5,0.5-1,0.9-1.4c0.4-0.4,0.9-0.7,1.4-0.9s1.1-0.3,1.8-0.3c0.6,0,1.2,0.1,1.8,0.3c0.5,0.2,1,0.5,1.4,0.9
			s0.7,0.8,0.9,1.4c0.2,0.5,0.3,1.1,0.3,1.7s-0.1,1.2-0.3,1.7c-0.2,0.5-0.5,1-0.9,1.4c-0.4,0.4-0.9,0.7-1.4,0.9
			C298.1,102.6,297.6,102.7,296.9,102.7z M296.9,102c0.5,0,1-0.1,1.4-0.3c0.4-0.2,0.8-0.4,1.1-0.7c0.3-0.3,0.6-0.7,0.7-1.1
			c0.2-0.4,0.3-0.9,0.3-1.4s-0.1-1-0.3-1.4c-0.2-0.4-0.4-0.8-0.7-1.1c-0.3-0.3-0.7-0.6-1.1-0.7s-0.9-0.3-1.4-0.3s-1,0.1-1.4,0.3
			c-0.4,0.2-0.8,0.4-1.1,0.7c-0.3,0.3-0.6,0.7-0.7,1.1s-0.3,0.9-0.3,1.4c0,0.5,0.1,1,0.3,1.4c0.2,0.4,0.4,0.8,0.7,1.1
			c0.3,0.3,0.7,0.6,1.1,0.7C296,101.9,296.4,102,296.9,102z"/>
		<path class="st2" d="M302.2,104.4l0.5-2.2l0.1,0.5c-0.2,0-0.3-0.1-0.5-0.2s-0.2-0.3-0.2-0.5c0-0.2,0.1-0.3,0.2-0.5
			s0.3-0.2,0.5-0.2c0.2,0,0.3,0.1,0.5,0.2c0.1,0.1,0.2,0.3,0.2,0.5c0,0.1,0,0.1,0,0.2c0,0.1,0,0.1,0,0.2c0,0.1-0.1,0.2-0.1,0.3
			l-0.5,1.7H302.2z"/>
		<path class="st2" d="M307.4,102.7c-0.1,0-0.2,0-0.3,0c-0.1,0-0.2,0-0.3-0.1l0.1-0.8c0.1,0,0.3,0,0.4,0c0.4,0,0.7-0.1,0.9-0.4
			s0.4-0.7,0.5-1.3s0.2-1.4,0.2-2.3l0.1-3.6h5.7v8.4h-0.9v-7.9l0.2,0.2h-4.5l0.2-0.3l-0.1,3.1c0,0.8-0.1,1.6-0.2,2.2
			c-0.1,0.6-0.2,1.1-0.4,1.5c-0.2,0.4-0.4,0.7-0.6,0.9C308.1,102.6,307.8,102.7,307.4,102.7z"/>
		<path class="st2" d="M318,101.9h5.1v0.8h-5.9v-8.4h5.8V95H318V101.9z M317.9,98h4.4v0.8h-4.4V98z"/>
		<path class="st2" d="M328.4,102.7c-0.6,0-1.2-0.1-1.8-0.3s-1-0.5-1.4-0.9c-0.4-0.4-0.7-0.8-0.9-1.4c-0.2-0.5-0.3-1.1-0.3-1.7
			s0.1-1.2,0.3-1.7c0.2-0.5,0.5-1,0.9-1.4c0.4-0.4,0.9-0.7,1.4-0.9s1.1-0.3,1.8-0.3c0.6,0,1.2,0.1,1.7,0.3c0.5,0.2,1,0.5,1.4,0.9
			l-0.6,0.6c-0.3-0.4-0.7-0.6-1.1-0.8c-0.4-0.2-0.9-0.2-1.3-0.2c-0.5,0-1,0.1-1.4,0.3c-0.4,0.2-0.8,0.4-1.1,0.7
			c-0.3,0.3-0.6,0.7-0.8,1.1c-0.2,0.4-0.3,0.9-0.3,1.4s0.1,1,0.3,1.4c0.2,0.4,0.4,0.8,0.8,1.1s0.7,0.6,1.1,0.7
			c0.4,0.2,0.9,0.3,1.4,0.3c0.5,0,0.9-0.1,1.3-0.2s0.8-0.4,1.1-0.8l0.6,0.6c-0.4,0.4-0.8,0.7-1.4,0.9
			C329.6,102.6,329,102.7,328.4,102.7z"/>
		<path class="st2" d="M333.9,102.7H333v-8.4h0.9V102.7z M339.2,98.8h-5.4V98h5.4V98.8z M339.1,94.3h0.9v8.4h-0.9V94.3z"/>
		<path class="st2" d="M346.2,102.7c-0.6,0-1.2-0.1-1.8-0.3s-1-0.5-1.4-0.9c-0.4-0.4-0.7-0.8-0.9-1.4c-0.2-0.5-0.3-1.1-0.3-1.7
			s0.1-1.2,0.3-1.7c0.2-0.5,0.5-1,0.9-1.4c0.4-0.4,0.9-0.7,1.4-0.9s1.1-0.3,1.8-0.3c0.6,0,1.2,0.1,1.8,0.3c0.5,0.2,1,0.5,1.4,0.9
			s0.7,0.8,0.9,1.4c0.2,0.5,0.3,1.1,0.3,1.7s-0.1,1.2-0.3,1.7c-0.2,0.5-0.5,1-0.9,1.4c-0.4,0.4-0.9,0.7-1.4,0.9
			C347.5,102.6,346.9,102.7,346.2,102.7z M346.2,102c0.5,0,1-0.1,1.4-0.3c0.4-0.2,0.8-0.4,1.1-0.7c0.3-0.3,0.6-0.7,0.7-1.1
			c0.2-0.4,0.3-0.9,0.3-1.4s-0.1-1-0.3-1.4c-0.2-0.4-0.4-0.8-0.7-1.1c-0.3-0.3-0.7-0.6-1.1-0.7s-0.9-0.3-1.4-0.3s-1,0.1-1.4,0.3
			c-0.4,0.2-0.8,0.4-1.1,0.7c-0.3,0.3-0.6,0.7-0.7,1.1s-0.3,0.9-0.3,1.4c0,0.5,0.1,1,0.3,1.4c0.2,0.4,0.4,0.8,0.7,1.1
			c0.3,0.3,0.7,0.6,1.1,0.7C345.3,101.9,345.7,102,346.2,102z"/>
		<path class="st2" d="M355.3,102.7v-8.4h0.9v7l5.4-7h0.8v8.4h-0.9v-6.9l-5.4,6.9H355.3z"/>
		<path class="st2" d="M370.2,101.2l-3.6-6.9h0.9l3.2,6.2L370.2,101.2z M367.6,101.8c0.4,0.2,0.8,0.2,1.2,0.1c0.4-0.1,0.7-0.4,1-0.8
			l0.4-0.6l0.1-0.1l3.2-6.1h0.9l-3.8,7c-0.3,0.5-0.6,0.9-0.9,1.1c-0.3,0.2-0.7,0.4-1.1,0.4c-0.4,0-0.8-0.1-1.2-0.2L367.6,101.8z"/>
		<path class="st2" d="M374.1,104.6l0-2.7h9v2.7h-0.8v-1.9h-7.3l0,1.9H374.1z M380.9,102.3V95h-4l-0.1,2c0,0.6-0.1,1.2-0.1,1.8
			c-0.1,0.6-0.1,1.1-0.2,1.6c-0.1,0.5-0.3,0.8-0.4,1.1s-0.4,0.5-0.7,0.5l-1-0.2c0.3,0,0.6-0.1,0.8-0.3s0.4-0.6,0.5-1
			c0.1-0.4,0.2-1,0.3-1.6c0.1-0.6,0.1-1.2,0.1-1.9l0.1-2.7h5.7v8H380.9z"/>
		<path class="st2" d="M388.2,102.7c-0.6,0-1.2-0.1-1.8-0.3s-1-0.5-1.4-0.9c-0.4-0.4-0.7-0.8-0.9-1.4c-0.2-0.5-0.3-1.1-0.3-1.7
			s0.1-1.2,0.3-1.7c0.2-0.5,0.5-1,0.9-1.4c0.4-0.4,0.9-0.7,1.4-0.9s1.1-0.3,1.8-0.3c0.6,0,1.2,0.1,1.8,0.3c0.5,0.2,1,0.5,1.4,0.9
			s0.7,0.8,0.9,1.4c0.2,0.5,0.3,1.1,0.3,1.7s-0.1,1.2-0.3,1.7c-0.2,0.5-0.5,1-0.9,1.4c-0.4,0.4-0.9,0.7-1.4,0.9
			C389.5,102.6,388.9,102.7,388.2,102.7z M388.2,102c0.5,0,1-0.1,1.4-0.3c0.4-0.2,0.8-0.4,1.1-0.7c0.3-0.3,0.6-0.7,0.7-1.1
			c0.2-0.4,0.3-0.9,0.3-1.4s-0.1-1-0.3-1.4c-0.2-0.4-0.4-0.8-0.7-1.1c-0.3-0.3-0.7-0.6-1.1-0.7s-0.9-0.3-1.4-0.3s-1,0.1-1.4,0.3
			c-0.4,0.2-0.8,0.4-1.1,0.7c-0.3,0.3-0.6,0.7-0.7,1.1s-0.3,0.9-0.3,1.4c0,0.5,0.1,1,0.3,1.4c0.2,0.4,0.4,0.8,0.7,1.1
			c0.3,0.3,0.7,0.6,1.1,0.7C387.3,101.9,387.7,102,388.2,102z"/>
		<path class="st2" d="M394.5,102.7v-8.4h6.1V95h-5.3v2.7h2.7c1,0,1.7,0.2,2.3,0.6c0.5,0.4,0.8,1,0.8,1.8c0,0.8-0.3,1.4-0.8,1.9
			c-0.6,0.4-1.4,0.6-2.4,0.6H394.5z M395.4,102h2.5c0.8,0,1.4-0.2,1.8-0.5c0.4-0.3,0.6-0.7,0.6-1.3c0-1.1-0.8-1.7-2.4-1.7h-2.5V102z
			"/>
		<path class="st2" d="M403.8,102.7h-0.9v-8.4h0.9V102.7z M409.1,98.8h-5.4V98h5.4V98.8z M409,94.3h0.9v8.4H409V94.3z"/>
		<path class="st2" d="M416.1,102.7c-0.6,0-1.2-0.1-1.8-0.3s-1-0.5-1.4-0.9c-0.4-0.4-0.7-0.8-0.9-1.4c-0.2-0.5-0.3-1.1-0.3-1.7
			s0.1-1.2,0.3-1.7c0.2-0.5,0.5-1,0.9-1.4c0.4-0.4,0.9-0.7,1.4-0.9s1.1-0.3,1.8-0.3c0.6,0,1.2,0.1,1.8,0.3c0.5,0.2,1,0.5,1.4,0.9
			s0.7,0.8,0.9,1.4c0.2,0.5,0.3,1.1,0.3,1.7s-0.1,1.2-0.3,1.7c-0.2,0.5-0.5,1-0.9,1.4c-0.4,0.4-0.9,0.7-1.4,0.9
			C417.3,102.6,416.8,102.7,416.1,102.7z M416.1,102c0.5,0,1-0.1,1.4-0.3c0.4-0.2,0.8-0.4,1.1-0.7c0.3-0.3,0.6-0.7,0.7-1.1
			c0.2-0.4,0.3-0.9,0.3-1.4s-0.1-1-0.3-1.4c-0.2-0.4-0.4-0.8-0.7-1.1c-0.3-0.3-0.7-0.6-1.1-0.7s-0.9-0.3-1.4-0.3s-1,0.1-1.4,0.3
			c-0.4,0.2-0.8,0.4-1.1,0.7c-0.3,0.3-0.6,0.7-0.7,1.1s-0.3,0.9-0.3,1.4c0,0.5,0.1,1,0.3,1.4c0.2,0.4,0.4,0.8,0.7,1.1
			c0.3,0.3,0.7,0.6,1.1,0.7C415.2,101.9,415.6,102,416.1,102z"/>
	</g>
</g>
<g id="Address">
	<path class="st3" d="M82.5,43.8c-17.1,0-30.9,13.8-31,30.9c0,21.4,24.1,41.5,31,41.5c7.2,0,31-19.6,31-41.5
		C113.4,57.6,99.6,43.8,82.5,43.8L82.5,43.8z M71.7,48.5c0.7-0.2,1.4-0.5,2.1-0.7c0.7-0.2,1.4,0.3,1.6,0.9c0.2,0.7-0.2,1.4-0.9,1.6
		c-0.6,0.2-1.3,0.4-1.9,0.6c-0.7,0.2-1.4-0.1-1.6-0.8C70.7,49.4,71.1,48.7,71.7,48.5z M54.7,68.1c1.5-7.3,6-13.6,12.4-17.4
		c0.6-0.4,1.4-0.2,1.8,0.4c0.4,0.6,0.2,1.4-0.4,1.8c-5.7,3.4-9.8,9.1-11.1,15.7c-0.1,0.7-0.8,1.1-1.5,1C55,69.4,54.5,68.8,54.7,68.1
		z M82.5,95.5c-11.4,0-20.7-9.3-20.7-20.7s9.3-20.7,20.7-20.7s20.7,9.3,20.7,20.7C103.2,86.2,93.9,95.5,82.5,95.5z"/>
	<path class="st3" d="M80.5,69.7l-0.6,0.4v-7.3h5.1v7.3l-0.6-0.4c-0.4-0.3-0.9-0.3-1.4,0l-0.6,0.4l-0.6-0.4
		C81.5,69.4,80.9,69.4,80.5,69.7z"/>
	<path class="st3" d="M94.5,65.4v15.9H70.5V65.4c0-1.4,1.1-2.6,2.6-2.6c0,0,0,0,0,0h4.3v8c0,0.4,0.2,0.9,0.6,1.1l1.3,0.8
		c0.4,0.3,0.9,0.3,1.4,0l0.6-0.4l0.6,0.4c0.4,0.3,0.9,0.3,1.4,0l0.6-0.4l0.6,0.4c0.4,0.3,0.9,0.3,1.4,0l1.3-0.8
		c0.4-0.2,0.6-0.7,0.6-1.1v-8h4.3C93.4,62.8,94.5,64,94.5,65.4C94.5,65.4,94.5,65.4,94.5,65.4L94.5,65.4z"/>
	<path class="st3" d="M70.5,83.9h24.1v0.4c0,1.4-1.1,2.6-2.6,2.6c0,0,0,0,0,0H73.1c-1.4,0-2.6-1.1-2.6-2.6c0,0,0,0,0,0V83.9z"/>
</g>
</svg>
